BioRhyme-Light.ufo
<glyph name="numbersign" format="1">
  <advance width="572"/>
  <unicode hex="0023"/>
  <outline>
    <contour>
      <point x="489" y="490" type="line"/>
      <point x="464" y="490" type="line"/>
      <point x="286" y="0" type="line"/>
      <point x="310" y="0" type="line"/>
    </contour>
    <contour>
      <point x="285" y="490" type="line"/>
      <point x="260" y="490" type="line"/>
      <point x="82" y="0" type="line"/>
      <point x="106" y="0" type="line"/>
    </contour>
    <contour>
      <point x="56" y="332" type="line"/>
      <point x="565" y="332" type="line"/>
      <point x="565" y="355" type="line"/>
      <point x="56" y="355" type="line"/>
    </contour>
    <contour>
      <point x="7" y="152" type="line"/>
      <point x="516" y="152" type="line"/>
      <point x="516" y="175" type="line"/>
      <point x="7" y="175" type="line"/>
    </contour>
  </outline>
</glyph>
<glyph name="dollar" format="1">
  <advance width="526"/>
  <unicode hex="0024"/>
  <outline>
    <contour>
      <point x="417" y="-10"/>
      <point x="481" y="36"/>
      <point x="481" y="101" type="curve" smooth="yes"/>
      <point x="481" y="178"/>
      <point x="406" y="208"/>
      <point x="274" y="244" type="curve" smooth="yes"/>
      <point x="157" y="276"/>
      <point x="86" y="309"/>
      <point x="86" y="369" type="curve" smooth="yes"/>
      <point x="86" y="426"/>
      <point x="137" y="457"/>
      <point x="211" y="457" type="curve" smooth="yes"/>
      <point x="300" y="457"/>
      <point x="387" y="417"/>
      <point x="450" y="311" type="curve"/>
      <point x="456" y="312" type="line"/>
      <point x="456" y="470" type="line"/>
      <point x="433" y="470" type="line"/>
      <point x="433" y="339" type="line"/>
      <point x="450" y="338" type="line"/>
      <point x="397" y="435"/>
      <point x="302" y="480"/>
      <point x="211" y="480" type="curve" smooth="yes"/>
      <point x="121" y="480"/>
      <point x="61" y="437"/>
      <point x="61" y="367" type="curve" smooth="yes"/>
      <point x="61" y="298"/>
      <point x="134" y="255"/>
      <point x="273" y="219" type="curve" smooth="yes"/>
      <point x="394" y="188"/>
      <point x="457" y="161"/>
      <point x="457" y="101" type="curve" smooth="yes"/>
      <point x="457" y="49"/>
      <point x="401" y="13"/>
      <point x="322" y="13" type="curve" smooth="yes"/>
      <point x="214" y="13"/>
      <point x="129" y="63"/>
      <point x="66" y="159" type="curve"/>
      <point x="60" y="158" type="line"/>
      <point x="60" y="0" type="line"/>
      <point x="83" y="0" type="line"/>
      <point x="83" y="131" type="line"/>
      <point x="66" y="132" type="line"/>
      <point x="119" y="45"/>
      <point x="212" y="-10"/>
      <point x="322" y="-10" type="curve" smooth="yes"/>
    </contour>
    <contour>
      <point x="280" y="-111" type="line"/>
      <point x="280" y="1" type="line"/>
      <point x="280" y="10" type="line"/>
      <point x="280" y="454" type="line"/>
      <point x="280" y="464" type="line"/>
      <point x="280" y="575" type="line"/>
      <point x="257" y="575" type="line"/>
      <point x="257" y="468" type="line"/>
      <point x="257" y="461" type="line"/>
      <point x="257" y="12" type="line"/>
      <point x="257" y="6" type="line"/>
      <point x="257" y="-111" type="line"/>
    </contour>
  </outline>
</glyph>
<glyph name="ampersand" format="1">
  <advance width="526"/>
  <unicode hex="0026"/>
  <outline>
    <contour>
      <point x="356" y="-9"/>
      <point x="450" y="78"/>
      <point x="457" y="172" type="curve" smooth="yes"/>
      <point x="460" y="214"/>
      <point x="446" y="251"/>
      <point x="430" y="277" type="curve"/>
      <point x="411" y="266" type="line"/>
      <point x="424" y="242"/>
      <point x="435" y="214"/>
      <point x="432" y="173" type="curve" smooth="yes"/>
      <point x="425" y="92"/>
      <point x="347" y="11"/>
      <point x="210" y="11" type="curve" smooth="yes"/>
      <point x="126" y="11"/>
      <point x="65" y="54"/>
      <point x="65" y="117" type="curve" smooth="yes"/>
      <point x="65" y="185"/>
      <point x="121" y="220"/>
      <point x="237" y="270" type="curve" smooth="yes"/>
      <point x="352" y="319"/>
      <point x="402" y="364"/>
      <point x="402" y="431" type="curve" smooth="yes"/>
      <point x="402" y="483"/>
      <point x="361" y="528"/>
      <point x="297" y="528" type="curve" smooth="yes"/>
      <point x="227" y="528"/>
      <point x="164" y="463"/>
      <point x="164" y="366" type="curve" smooth="yes"/>
      <point x="164" y="179"/>
      <point x="296" y="-9"/>
      <point x="449" y="-9" type="curve" smooth="yes"/>
      <point x="485" y="-9"/>
      <point x="511" y="-1"/>
      <point x="531" y="8" type="curve"/>
      <point x="522" y="30" type="line"/>
      <point x="503" y="21"/>
      <point x="485" y="14"/>
      <point x="450" y="14" type="curve" smooth="yes"/>
      <point x="306" y="14"/>
      <point x="189" y="194"/>
      <point x="189" y="366" type="curve" smooth="yes"/>
      <point x="189" y="463"/>
      <point x="250" y="505"/>
      <point x="297" y="505" type="curve" smooth="yes"/>
      <point x="344" y="505"/>
      <point x="377" y="474"/>
      <point x="377" y="427" type="curve" smooth="yes"/>
      <point x="377" y="381"/>
      <point x="335" y="335"/>
      <point x="233" y="293" type="curve" smooth="yes"/>
      <point x="104" y="239"/>
      <point x="40" y="198"/>
      <point x="40" y="117" type="curve" smooth="yes"/>
      <point x="40" y="34"/>
      <point x="122" y="-14"/>
      <point x="210" y="-12" type="curve" smooth="yes"/>
    </contour>
  </outline>
</glyph>
<glyph name="hyphen" format="1">
  <advance width="235"/>
  <unicode hex="002D"/>
  <outline>
    <contour>
      <point x="25" y="191" type="line"/>
      <point x="25" y="167" type="line"/>
      <point x="210" y="167" type="line"/>
      <point x="210" y="191" type="line"/>
    </contour>
  </outline>
</glyph>
<glyph name="zero" format="1">
  <advance width="516"/>
  <unicode hex="0030"/>
  <outline>
    <contour>
      <point x="382" y="-10"/>
      <point x="471" y="89"/>
      <point x="471" y="235" type="curve"/>
      <point x="471" y="381"/>
      <point x="376" y="480"/>
      <point x="258" y="480" type="curve" smooth="yes"/>
      <point x="134" y="480"/>
      <point x="45" y="381"/>
      <point x="45" y="235" type="curve"/>
      <point x="45" y="89"/>
      <point x="140" y="-10"/>
      <point x="258" y="-10" type="curve"/>
    </contour>
    <contour>
      <point x="150" y="14"/>
      <point x="69" y="107"/>
      <point x="69" y="235" type="curve"/>
      <point x="69" y="363"/>
      <point x="144" y="456"/>
      <point x="258" y="456" type="curve" smooth="yes"/>
      <point x="366" y="456"/>
      <point x="447" y="363"/>
      <point x="447" y="235" type="curve"/>
      <point x="447" y="107"/>
      <point x="372" y="14"/>
      <point x="258" y="14" type="curve" smooth="yes"/>
    </contour>
    <contour>
      <point x="280" y="205"/>
      <point x="296" y="218"/>
      <point x="296" y="235" type="curve"/>
      <point x="296" y="253"/>
      <point x="280" y="266"/>
      <point x="259" y="266" type="curve"/>
      <point x="240" y="266"/>
      <point x="223" y="253"/>
      <point x="223" y="235" type="curve"/>
      <point x="223" y="218"/>
      <point x="240" y="205"/>
      <point x="259" y="205" type="curve"/>
    </contour>
  </outline>
</glyph>
<glyph name="three" format="1">
  <advance width="417"/>
  <unicode hex="0033"/>
  <outline>
    <contour>
      <point x="309" y="-11"/>
      <point x="377" y="43"/>
      <point x="377" y="115" type="curve" smooth="yes"/>
      <point x="377" y="191"/>
      <point x="300" y="234"/>
      <point x="182" y="234" type="curve"/>
      <point x="182" y="223" type="line"/>
      <point x="294" y="223"/>
      <point x="359" y="279"/>
      <point x="359" y="352" type="curve" smooth="yes"/>
      <point x="359" y="437"/>
      <point x="272" y="481"/>
      <point x="202" y="481" type="curve" smooth="yes"/>
      <point x="127" y="481"/>
      <point x="75" y="452"/>
      <point x="27" y="415" type="curve"/>
      <point x="40" y="396" type="line"/>
      <point x="85" y="430"/>
      <point x="131" y="458"/>
      <point x="202" y="458" type="curve" smooth="yes"/>
      <point x="268" y="458"/>
      <point x="334" y="416"/>
      <point x="334" y="352" type="curve" smooth="yes"/>
      <point x="334" y="292"/>
      <point x="279" y="240"/>
      <point x="177" y="240" type="curve" smooth="yes"/>
      <point x="110" y="240" type="line"/>
      <point x="110" y="218" type="line"/>
      <point x="177" y="218" type="line" smooth="yes"/>
      <point x="295" y="218"/>
      <point x="352" y="174"/>
      <point x="352" y="115" type="curve" smooth="yes"/>
      <point x="352" y="54"/>
      <point x="288" y="12"/>
      <point x="209" y="12" type="curve" smooth="yes"/>
      <point x="132" y="12"/>
      <point x="76" y="46"/>
      <point x="25" y="85" type="curve"/>
      <point x="10" y="66" type="line"/>
      <point x="62" y="26"/>
      <point x="123" y="-11"/>
      <point x="207" y="-11" type="curve" smooth="yes"/>
    </contour>
  </outline>
</glyph>
<glyph name="six" format="1">
  <advance width="464"/>
  <unicode hex="0036"/>
  <outline>
    <contour>
      <point x="336" y="-10"/>
      <point x="424" y="50"/>
      <point x="424" y="144" type="curve" smooth="yes"/>
      <point x="424" y="240"/>
      <point x="341" y="276"/>
      <point x="262" y="277" type="curve" smooth="yes"/>
      <point x="192" y="278"/>
      <point x="131" y="256"/>
      <point x="63" y="214" type="curve"/>
      <point x="63" y="190" type="line"/>
      <point x="129" y="233"/>
      <point x="185" y="254"/>
      <point x="254" y="254" type="curve" smooth="yes"/>
      <point x="331" y="254"/>
      <point x="400" y="219"/>
      <point x="398" y="143" type="curve" smooth="yes"/>
      <point x="396" y="70"/>
      <point x="332" y="14"/>
      <point x="246" y="14" type="curve" smooth="yes"/>
      <point x="159" y="14"/>
      <point x="69" y="84"/>
      <point x="69" y="214" type="curve" smooth="yes"/>
      <point x="69" y="366"/>
      <point x="161" y="457"/>
      <point x="268" y="457" type="curve" smooth="yes"/>
      <point x="329" y="457"/>
      <point x="369" y="439"/>
      <point x="406" y="418" type="curve"/>
      <point x="416" y="439" type="line"/>
      <point x="379" y="460"/>
      <point x="331" y="481"/>
      <point x="268" y="481" type="curve" smooth="yes"/>
      <point x="152" y="481"/>
      <point x="45" y="382"/>
      <point x="45" y="217" type="curve" smooth="yes"/>
      <point x="45" y="67"/>
      <point x="137" y="-10"/>
      <point x="246" y="-10" type="curve" smooth="yes"/>
    </contour>
  </outline>
</glyph>
<glyph name="semicolon" format="1">
  <advance width="235"/>
  <unicode hex="003B"/>
  <outline>
    <contour>
      <point x="137" y="-99"/>
      <point x="167" y="-40"/>
      <point x="167" y="3" type="curve" smooth="yes"/>
      <point x="167" y="35"/>
      <point x="148" y="55"/>
      <point x="118" y="55" type="curve" smooth="yes"/>
      <point x="96" y="55"/>
      <point x="78" y="40"/>
      <point x="78" y="21" type="curve" smooth="yes"/>
      <point x="78" y="2"/>
      <point x="96" y="-10"/>
      <point x="115" y="-10" type="curve" smooth="yes"/>
      <point x="128" y="-10"/>
      <point x="135" y="-8"/>
      <point x="146" y="-5" type="curve"/>
      <point x="142" y="-49"/>
      <point x="115" y="-90"/>
      <point x="68" y="-138" type="curve"/>
      <point x="79" y="-150" type="line"/>
    </contour>
    <contour>
      <point x="144" y="300"/>
      <point x="161" y="314"/>
      <point x="161" y="332" type="curve"/>
      <point x="161" y="351"/>
      <point x="144" y="365"/>
      <point x="119" y="365" type="curve"/>
      <point x="96" y="365"/>
      <point x="78" y="351"/>
      <point x="78" y="332" type="curve"/>
      <point x="78" y="314"/>
      <point x="96" y="300"/>
      <point x="119" y="300" type="curve"/>
    </contour>
  </outline>
</glyph>
<glyph name="F" format="1">
  <advance width="557"/>
  <unicode hex="0046"/>
  <outline>
    <contour>
      <point x="527" y="384" type="line"/>
      <point x="527" y="520" type="line"/>
      <point x="30" y="520" type="line"/>
      <point x="30" y="497" type="line"/>
      <point x="502" y="497" type="line"/>
      <point x="502" y="384" type="line"/>
    </contour>
    <contour>
      <point x="286" y="0" type="line"/>
      <point x="286" y="23" type="line"/>
      <point x="30" y="23" type="line"/>
      <point x="30" y="0" type="line"/>
    </contour>
    <contour>
      <point x="168" y="13" type="line"/>
      <point x="168" y="507" type="line"/>
      <point x="143" y="507" type="line"/>
      <point x="143" y="13" type="line"/>
    </contour>
    <contour>
      <point x="368" y="241" type="line"/>
      <point x="368" y="264" type="line"/>
      <point x="165" y="264" type="line"/>
      <point x="165" y="241" type="line"/>
    </contour>
    <contour>
      <point x="381" y="158" type="line"/>
      <point x="381" y="347" type="line"/>
      <point x="356" y="347" type="line"/>
      <point x="356" y="158" type="line"/>
    </contour>
    <contour>
      <point x="280" y="490" type="move" name="top"/>
    </contour>
    <contour>
      <point x="280" y="0" type="move" name="bottom"/>
    </contour>
  </outline>
</glyph>
<glyph name="I" format="1">
  <advance width="311"/>
  <unicode hex="0049"/>
  <outline>
    <contour>
      <point x="168" y="13" type="line"/>
      <point x="168" y="509" type="line"/>
      <point x="143" y="509" type="line"/>
      <point x="143" y="13" type="line"/>
    </contour>
    <contour>
      <point x="281" y="0" type="line"/>
      <point x="281" y="23" type="line"/>
      <point x="30" y="23" type="line"/>
      <point x="30" y="0" type="line"/>
    </contour>
    <contour>
      <point x="281" y="497" type="line"/>
      <point x="281" y="520" type="line"/>
      <point x="30" y="520" type="line"/>
      <point x="30" y="497" type="line"/>
    </contour>
    <contour>
      <point x="281" y="0" type="move" name="ogonek"/>
    </contour>
    <contour>
      <point x="155" y="0" type="move" name="bottom"/>
    </contour>
    <contour>
      <point x="156" y="520" type="move" name="top"/>
    </contour>
  </outline>
</glyph>
<glyph name="J" format="1">
  <advance width="450"/>
  <unicode hex="004A"/>
  <outline>
    <contour>
      <point x="267" y="-10"/>
      <point x="332" y="54"/>
      <point x="332" y="169" type="curve" smooth="yes"/>
      <point x="332" y="507" type="line"/>
      <point x="306" y="507" type="line"/>
      <point x="306" y="164" type="line" smooth="yes"/>
      <point x="306" y="64"/>
      <point x="250" y="13"/>
      <point x="174" y="13" type="curve" smooth="yes"/>
      <point x="107" y="13"/>
      <point x="54" y="46"/>
      <point x="20" y="73" type="curve"/>
      <point x="5" y="53" type="line"/>
      <point x="43" y="24"/>
      <point x="100" y="-10"/>
      <point x="174" y="-10" type="curve" smooth="yes"/>
    </contour>
    <contour>
      <point x="445" y="497" type="line"/>
      <point x="445" y="520" type="line"/>
      <point x="162" y="520" type="line"/>
      <point x="162" y="497" type="line"/>
    </contour>
    <contour>
      <point x="173" y="520" type="move" name="top"/>
    </contour>
    <contour>
      <point x="173" y="0" type="move" name="bottom"/>
    </contour>
  </outline>
</glyph>
<glyph name="K" format="1">
  <advance width="637"/>
  <unicode hex="004B"/>
  <outline>
    <contour>
      <point x="563" y="507" type="line"/>
      <point x="530" y="507" type="line"/>
      <point x="155" y="168" type="line"/>
      <point x="155" y="140" type="line"/>
    </contour>
    <contour>
      <point x="281" y="0" type="line" smooth="yes"/>
      <point x="281" y="23" type="line" smooth="yes"/>
      <point x="30" y="23" type="line" smooth="yes"/>
      <point x="30" y="0" type="line" smooth="yes"/>
    </contour>
    <contour>
      <point x="168" y="13" type="line" smooth="yes"/>
      <point x="168" y="507" type="line" smooth="yes"/>
      <point x="143" y="507" type="line" smooth="yes"/>
      <point x="143" y="13" type="line" smooth="yes"/>
    </contour>
    <contour>
      <point x="637" y="0" type="line" smooth="yes"/>
      <point x="637" y="23" type="line" smooth="yes"/>
      <point x="415" y="23" type="line" smooth="yes"/>
      <point x="415" y="0" type="line" smooth="yes"/>
    </contour>
    <contour>
      <point x="562" y="10" type="line"/>
      <point x="319" y="304" type="line"/>
      <point x="300" y="288" type="line"/>
      <point x="530" y="10" type="line"/>
    </contour>
    <contour>
      <point x="281" y="497" type="line" smooth="yes"/>
      <point x="281" y="520" type="line" smooth="yes"/>
      <point x="30" y="520" type="line" smooth="yes"/>
      <point x="30" y="497" type="line" smooth="yes"/>
    </contour>
    <contour>
      <point x="627" y="497" type="line" smooth="yes"/>
      <point x="627" y="520" type="line" smooth="yes"/>
      <point x="405" y="520" type="line" smooth="yes"/>
      <point x="405" y="497" type="line" smooth="yes"/>
    </contour>
    <contour>
      <point x="346" y="520" type="move" name="top"/>
    </contour>
    <contour>
      <point x="346" y="0" type="move" name="bottom"/>
    </contour>
  </outline>
</glyph>
<glyph name="L" format="1">
  <advance width="537"/>
  <unicode hex="004C"/>
  <outline>
    <contour>
      <point x="497" y="0" type="line"/>
      <point x="497" y="136" type="line"/>
      <point x="473" y="136" type="line"/>
      <point x="473" y="23" type="line"/>
      <point x="30" y="23" type="line"/>
      <point x="30" y="0" type="line"/>
    </contour>
    <contour>
      <point x="168" y="13" type="line"/>
      <point x="168" y="507" type="line"/>
      <point x="143" y="507" type="line"/>
      <point x="143" y="13" type="line"/>
    </contour>
    <contour>
      <point x="281" y="497" type="line"/>
      <point x="281" y="520" type="line"/>
      <point x="30" y="520" type="line"/>
      <point x="30" y="497" type="line"/>
    </contour>
    <contour>
      <point x="223" y="245" type="move" name="center"/>
    </contour>
    <contour>
      <point x="223" y="490" type="move" name="top"/>
    </contour>
    <contour>
      <point x="435" y="490" type="move" name="topright"/>
    </contour>
    <contour>
      <point x="223" y="0" type="move" name="bottom"/>
    </contour>
  </outline>
</glyph>
<glyph name="M" format="1">
  <advance width="822"/>
  <unicode hex="004D"/>
  <outline>
    <contour>
      <point x="412" y="-11" type="line"/>
      <point x="421" y="14" type="line"/>
      <point x="170" y="520" type="line"/>
      <point x="143" y="520" type="line"/>
      <point x="407" y="-11" type="line"/>
    </contour>
    <contour>
      <point x="269" y="0" type="line"/>
      <point x="269" y="23" type="line"/>
      <point x="30" y="23" type="line"/>
      <point x="30" y="0" type="line"/>
    </contour>
    <contour>
      <point x="166" y="12" type="line"/>
      <point x="166" y="447" type="line"/>
      <point x="166" y="471"/>
      <point x="166" y="496"/>
      <point x="166" y="520" type="curve"/>
      <point x="141" y="520" type="line"/>
      <point x="141" y="12" type="line"/>
    </contour>
    <contour>
      <point x="166" y="497" type="line"/>
      <point x="166" y="520" type="line"/>
      <point x="30" y="520" type="line"/>
      <point x="30" y="497" type="line"/>
    </contour>
    <contour>
      <point x="792" y="0" type="line"/>
      <point x="792" y="23" type="line"/>
      <point x="551" y="23" type="line"/>
      <point x="551" y="0" type="line"/>
    </contour>
    <contour>
      <point x="413" y="-11" type="line"/>
      <point x="676" y="520" type="line"/>
      <point x="650" y="520" type="line"/>
      <point x="402" y="14" type="line"/>
      <point x="408" y="-11" type="line"/>
    </contour>
    <contour>
      <point x="679" y="12" type="line"/>
      <point x="679" y="520" type="line"/>
      <point x="654" y="520" type="line"/>
      <point x="654" y="496"/>
      <point x="654" y="471"/>
      <point x="654" y="447" type="curve"/>
      <point x="654" y="12" type="line"/>
    </contour>
    <contour>
      <point x="792" y="497" type="line"/>
      <point x="792" y="520" type="line"/>
      <point x="654" y="520" type="line"/>
      <point x="654" y="497" type="line"/>
    </contour>
    <contour>
      <point x="407" y="480" type="move" name="top"/>
    </contour>
    <contour>
      <point x="409" y="-25" type="move" name="bottom"/>
    </contour>
  </outline>
</glyph>
<glyph name="P" format="1">
  <advance width="553"/>
  <unicode hex="0050"/>
  <outline>
    <contour>
      <point x="312" y="214" type="line" smooth="yes"/>
      <point x="424" y="215"/>
      <point x="508" y="264"/>
      <point x="508" y="366" type="curve" smooth="yes"/>
      <point x="508" y="465"/>
      <point x="436" y="520"/>
      <point x="324" y="520" type="curve" smooth="yes"/>
      <point x="30" y="520" type="line"/>
      <point x="30" y="497" type="line"/>
      <point x="318" y="497" type="line" smooth="yes"/>
      <point x="415" y="497"/>
      <point x="483" y="455"/>
      <point x="483" y="365" type="curve" smooth="yes"/>
      <point x="483" y="278"/>
      <point x="401" y="240"/>
      <point x="307" y="238" type="curve" smooth="yes"/>
      <point x="160" y="235" type="line"/>
      <point x="160" y="212" type="line"/>
    </contour>
    <contour>
      <point x="286" y="0" type="line"/>
      <point x="286" y="23" type="line"/>
      <point x="30" y="23" type="line"/>
      <point x="30" y="0" type="line"/>
    </contour>
    <contour>
      <point x="168" y="13" type="line"/>
      <point x="168" y="507" type="line"/>
      <point x="143" y="507" type="line"/>
      <point x="143" y="13" type="line"/>
    </contour>
    <contour>
      <point x="273" y="490" type="move" name="top"/>
    </contour>
    <contour>
      <point x="273" y="0" type="move" name="bottom"/>
    </contour>
  </outline>
</glyph>
<glyph name="R" format="1">
  <advance width="600"/>
  <unicode hex="0052"/>
  <outline>
    <contour>
      <point x="320" y="241" type="line" smooth="yes"/>
      <point x="434" y="241"/>
      <point x="493" y="309"/>
      <point x="493" y="378" type="curve" smooth="yes"/>
      <point x="493" y="457"/>
      <point x="433" y="520"/>
      <point x="320" y="520" type="curve" smooth="yes"/>
      <point x="30" y="520" type="line"/>
      <point x="30" y="497" type="line"/>
      <point x="320" y="497" type="line" smooth="yes"/>
      <point x="419" y="497"/>
      <point x="468" y="441"/>
      <point x="468" y="378" type="curve" smooth="yes"/>
      <point x="468" y="317"/>
      <point x="416" y="262"/>
      <point x="320" y="262" type="curve" smooth="yes"/>
      <point x="163" y="262" type="line"/>
      <point x="163" y="241" type="line"/>
    </contour>
    <contour>
      <point x="281" y="0" type="line"/>
      <point x="281" y="23" type="line"/>
      <point x="30" y="22" type="line"/>
      <point x="30" y="-1" type="line"/>
    </contour>
    <contour>
      <point x="168" y="13" type="line"/>
      <point x="168" y="507" type="line"/>
      <point x="143" y="507" type="line"/>
      <point x="143" y="13" type="line"/>
    </contour>
    <contour>
      <point x="555" y="-10"/>
      <point x="590" y="18"/>
      <point x="610" y="45" type="curve"/>
      <point x="593" y="61" type="line"/>
      <point x="576" y="38"/>
      <point x="549" y="13"/>
      <point x="506" y="13" type="curve" smooth="yes"/>
      <point x="440" y="13"/>
      <point x="396" y="68"/>
      <point x="357" y="172" type="curve" smooth="yes"/>
      <point x="327" y="253" type="line"/>
      <point x="304" y="249" type="line"/>
      <point x="333" y="168" type="line" smooth="yes"/>
      <point x="374" y="52"/>
      <point x="427" y="-10"/>
      <point x="506" y="-10" type="curve" smooth="yes"/>
    </contour>
    <contour>
      <point x="295" y="520" type="move" name="top"/>
    </contour>
    <contour>
      <point x="335" y="0" type="move" name="bottom"/>
    </contour>
  </outline>
</glyph>
<glyph name="W" format="1">
  <advance width="881"/>
  <unicode hex="0057"/>
  <outline>
    <contour>
      <point x="597" y="-10" type="line"/>
      <point x="782" y="507" type="line"/>
      <point x="755" y="507" type="line"/>
      <point x="592" y="40" type="line"/>
      <point x="354" y="507" type="line"/>
      <point x="325" y="507" type="line"/>
      <point x="589" y="-10" type="line"/>
    </contour>
    <contour>
      <point x="292" y="-10" type="line"/>
      <point x="557" y="507" type="line"/>
      <point x="531" y="507" type="line"/>
      <point x="292" y="40" type="line"/>
      <point x="129" y="507" type="line"/>
      <point x="100" y="507" type="line"/>
      <point x="284" y="-10" type="line"/>
    </contour>
    <contour>
      <point x="232" y="497" type="line"/>
      <point x="232" y="520" type="line"/>
      <point x="5" y="520" type="line"/>
      <point x="5" y="497" type="line"/>
    </contour>
    <contour>
      <point x="616" y="497" type="line"/>
      <point x="616" y="520" type="line"/>
      <point x="260" y="520" type="line"/>
      <point x="260" y="497" type="line"/>
    </contour>
    <contour>
      <point x="876" y="497" type="line"/>
      <point x="876" y="520" type="line"/>
      <point x="639" y="520" type="line"/>
      <point x="639" y="497" type="line"/>
    </contour>
    <contour>
      <point x="444" y="520" type="move" name="top"/>
    </contour>
    <contour>
      <point x="444" y="0" type="move" name="bottom"/>
    </contour>
  </outline>
</glyph>
<glyph name="X" format="1">
  <advance width="625"/>
  <unicode hex="0058"/>
  <outline>
    <contour>
      <point x="516" y="12" type="line"/>
      <point x="321" y="263" type="line"/>
      <point x="317" y="263" type="line"/>
      <point x="126" y="507" type="line"/>
      <point x="95" y="507" type="line"/>
      <point x="304" y="240" type="line"/>
      <point x="308" y="240" type="line"/>
      <point x="485" y="12" type="line"/>
    </contour>
    <contour>
      <point x="246" y="0" type="line"/>
      <point x="246" y="23" type="line"/>
      <point x="138" y="23" type="line"/>
      <point x="128" y="23" type="line"/>
      <point x="10" y="23" type="line"/>
      <point x="10" y="0" type="line"/>
    </contour>
    <contour>
      <point x="615" y="0" type="line"/>
      <point x="615" y="23" type="line"/>
      <point x="499" y="23" type="line"/>
      <point x="486" y="23" type="line"/>
      <point x="379" y="23" type="line"/>
      <point x="379" y="0" type="line"/>
    </contour>
    <contour>
      <point x="139" y="12" type="line"/>
      <point x="318" y="239" type="line"/>
      <point x="322" y="245" type="line"/>
      <point x="529" y="507" type="line"/>
      <point x="502" y="507" type="line"/>
      <point x="310" y="264" type="line"/>
      <point x="306" y="258" type="line"/>
      <point x="112" y="12" type="line"/>
    </contour>
    <contour>
      <point x="111" y="497" type="line"/>
      <point x="121" y="497" type="line"/>
      <point x="247" y="497" type="line"/>
      <point x="247" y="520" type="line" smooth="yes"/>
      <point x="10" y="520" type="line"/>
      <point x="10" y="497" type="line"/>
    </contour>
    <contour>
      <point x="501" y="497" type="line"/>
      <point x="511" y="497" type="line"/>
      <point x="615" y="497" type="line"/>
      <point x="615" y="520" type="line"/>
      <point x="378" y="520" type="line" smooth="yes"/>
      <point x="378" y="497" type="line"/>
    </contour>
    <contour>
      <point x="315" y="490" type="move" name="top"/>
    </contour>
    <contour>
      <point x="315" y="0" type="move" name="bottom"/>
    </contour>
  </outline>
</glyph>
<glyph name="Y" format="1">
  <advance width="620"/>
  <unicode hex="0059"/>
  <outline>
    <contour>
      <point x="319" y="178" type="line"/>
      <point x="530" y="510" type="line"/>
      <point x="502" y="510" type="line"/>
      <point x="311" y="207" type="line"/>
      <point x="117" y="511" type="line"/>
      <point x="88" y="511" type="line"/>
      <point x="301" y="178" type="line"/>
    </contour>
    <contour>
      <point x="441" y="0" type="line"/>
      <point x="441" y="23" type="line"/>
      <point x="180" y="23" type="line"/>
      <point x="180" y="0" type="line"/>
    </contour>
    <contour>
      <point x="323" y="0" type="line"/>
      <point x="323" y="204" type="line"/>
      <point x="298" y="204" type="line"/>
      <point x="298" y="0" type="line"/>
    </contour>
    <contour>
      <point x="232" y="497" type="line"/>
      <point x="232" y="520" type="line"/>
      <point x="5" y="520" type="line"/>
      <point x="5" y="497" type="line"/>
    </contour>
    <contour>
      <point x="615" y="497" type="line"/>
      <point x="615" y="520" type="line"/>
      <point x="389" y="520" type="line"/>
      <point x="389" y="497" type="line"/>
    </contour>
    <contour>
      <point x="311" y="510" type="move" name="top"/>
    </contour>
    <contour>
      <point x="311" y="0" type="move" name="bottom"/>
    </contour>
  </outline>
</glyph>
<glyph name="bracketright" format="1">
  <advance width="244"/>
  <unicode hex="005D"/>
  <outline>
    <contour>
      <point x="139" y="-76" type="line"/>
      <point x="139" y="604" type="line"/>
      <point x="114" y="604" type="line"/>
      <point x="114" y="-76" type="line"/>
    </contour>
    <contour>
      <point x="137" y="-76" type="line"/>
      <point x="137" y="-53" type="line"/>
      <point x="15" y="-53" type="line"/>
      <point x="15" y="-76" type="line"/>
    </contour>
    <contour>
      <point x="137" y="581" type="line"/>
      <point x="137" y="604" type="line"/>
      <point x="15" y="604" type="line"/>
      <point x="15" y="581" type="line"/>
    </contour>
  </outline>
</glyph>
<glyph name="underscore" format="1">
  <advance width="280"/>
  <unicode hex="005F"/>
  <outline>
    <contour>
      <point x="-10" y="-67" type="line"/>
      <point x="-10" y="-91" type="line"/>
      <point x="290" y="-91" type="line"/>
      <point x="290" y="-67" type="line"/>
    </contour>
  </outline>
</glyph>
<glyph name="a" format="1">
  <advance width="444"/>
  <unicode hex="0061"/>
  <outline>
    <contour>
      <point x="404" y="-5"/>
      <point x="418" y="1"/>
      <point x="427" y="7" type="curve"/>
      <point x="419" y="28" type="line"/>
      <point x="411" y="23"/>
      <point x="401" y="18"/>
      <point x="389" y="18" type="curve" smooth="yes"/>
      <point x="366" y="18"/>
      <point x="355" y="37"/>
      <point x="355" y="73" type="curve" smooth="yes"/>
      <point x="355" y="233" type="line" smooth="yes"/>
      <point x="355" y="333"/>
      <point x="294" y="367"/>
      <point x="224" y="367" type="curve" smooth="yes"/>
      <point x="166" y="367"/>
      <point x="112" y="350"/>
      <point x="65" y="329" type="curve"/>
      <point x="72" y="306" type="line"/>
      <point x="118" y="327"/>
      <point x="166" y="343"/>
      <point x="224" y="343" type="curve" smooth="yes"/>
      <point x="281" y="343"/>
      <point x="331" y="317"/>
      <point x="331" y="233" type="curve" smooth="yes"/>
      <point x="331" y="73" type="line" smooth="yes"/>
      <point x="331" y="23"/>
      <point x="350" y="-5"/>
      <point x="387" y="-5" type="curve" smooth="yes"/>
    </contour>
    <contour>
      <point x="229" y="-10"/>
      <point x="291" y="25"/>
      <point x="346" y="67" type="curve"/>
      <point x="346" y="90" type="line"/>
      <point x="291" y="46"/>
      <point x="232" y="13"/>
      <point x="175" y="13" type="curve" smooth="yes"/>
      <point x="120" y="13"/>
      <point x="70" y="43"/>
      <point x="70" y="100" type="curve" smooth="yes"/>
      <point x="70" y="161"/>
      <point x="130" y="191"/>
      <point x="194" y="190" type="curve" smooth="yes"/>
      <point x="245" y="189"/>
      <point x="291" y="180"/>
      <point x="346" y="160" type="curve"/>
      <point x="346" y="183" type="line"/>
      <point x="295" y="201"/>
      <point x="250" y="213"/>
      <point x="194" y="213" type="curve" smooth="yes"/>
      <point x="107" y="213"/>
      <point x="45" y="168"/>
      <point x="45" y="100" type="curve" smooth="yes"/>
      <point x="45" y="29"/>
      <point x="106" y="-10"/>
      <point x="175" y="-10" type="curve" smooth="yes"/>
    </contour>
    <contour>
      <point x="427" y="7" type="move" name="ogonek"/>
    </contour>
    <contour>
      <point x="175" y="-10" type="move" name="bottom"/>
    </contour>
    <contour>
      <point x="218" y="367" type="move" name="top"/>
    </contour>
  </outline>
</glyph>
<glyph name="d" format="1">
  <advance width="485"/>
  <unicode hex="0064"/>
  <outline>
    <contour>
      <point x="280" y="-10"/>
      <point x="335" y="31"/>
      <point x="372" y="67" type="curve"/>
      <point x="372" y="94" type="line"/>
      <point x="330" y="52"/>
      <point x="280" y="14"/>
      <point x="211" y="13" type="curve" smooth="yes"/>
      <point x="133" y="12"/>
      <point x="70" y="72"/>
      <point x="70" y="171" type="curve" smooth="yes"/>
      <point x="70" y="272"/>
      <point x="140" y="345"/>
      <point x="223" y="345" type="curve" smooth="yes"/>
      <point x="290" y="345"/>
      <point x="338" y="311"/>
      <point x="379" y="268" type="curve"/>
      <point x="379" y="291" type="line"/>
      <point x="338" y="333"/>
      <point x="290" y="367"/>
      <point x="223" y="367" type="curve" smooth="yes"/>
      <point x="129" y="367"/>
      <point x="45" y="290"/>
      <point x="45" y="170" type="curve" smooth="yes"/>
      <point x="45" y="59"/>
      <point x="120" y="-10"/>
      <point x="211" y="-10" type="curve" smooth="yes"/>
    </contour>
    <contour>
      <point x="431" y="-10"/>
      <point x="445" y="-5"/>
      <point x="455" y="2" type="curve"/>
      <point x="449" y="24" type="line"/>
      <point x="442" y="18"/>
      <point x="429" y="14"/>
      <point x="416" y="14" type="curve" smooth="yes"/>
      <point x="396" y="14"/>
      <point x="383" y="29"/>
      <point x="383" y="68" type="curve" smooth="yes"/>
      <point x="383" y="520" type="line"/>
      <point x="359" y="520" type="line"/>
      <point x="359" y="68" type="line" smooth="yes"/>
      <point x="359" y="18"/>
      <point x="378" y="-10"/>
      <point x="415" y="-10" type="curve" smooth="yes"/>
    </contour>
    <contour>
      <point x="383" y="497" type="line"/>
      <point x="383" y="520" type="line"/>
      <point x="267" y="520" type="line"/>
      <point x="267" y="497" type="line"/>
    </contour>
    <contour>
      <point x="209" y="179" type="move" name="center"/>
    </contour>
    <contour>
      <point x="209" y="377" type="move" name="top"/>
    </contour>
    <contour>
      <point x="373" y="357" type="move" name="topright"/>
    </contour>
    <contour>
      <point x="209" y="-20" type="move" name="bottom"/>
    </contour>
  </outline>
</glyph>
<glyph name="f" format="1">
  <advance width="302"/>
  <unicode hex="0066"/>
  <outline>
    <contour>
      <point x="142" y="0" type="line"/>
      <point x="142" y="418" type="line"/>
      <point x="142" y="505"/>
      <point x="186" y="532"/>
      <point x="232" y="532" type="curve" smooth="yes"/>
      <point x="268" y="532"/>
      <point x="305" y="516"/>
      <point x="337" y="497" type="curve"/>
      <point x="347" y="518" type="line"/>
      <point x="313" y="536"/>
      <point x="275" y="555"/>
      <point x="232" y="555" type="curve" smooth="yes"/>
      <point x="167" y="555"/>
      <point x="117" y="514"/>
      <point x="117" y="416" type="curve"/>
      <point x="117" y="0" type="line"/>
    </contour>
    <contour>
      <point x="239" y="0" type="line"/>
      <point x="239" y="23" type="line"/>
      <point x="25" y="23" type="line"/>
      <point x="25" y="0" type="line"/>
    </contour>
    <contour>
      <point x="263" y="334" type="line"/>
      <point x="263" y="357" type="line"/>
      <point x="25" y="357" type="line"/>
      <point x="25" y="334" type="line"/>
    </contour>
  </outline>
</glyph>
<glyph name="i" format="1">
  <advance width="254"/>
  <unicode hex="0069"/>
  <outline>
    <contour>
      <point x="142" y="0" type="line"/>
      <point x="142" y="357" type="line"/>
      <point x="117" y="357" type="line"/>
      <point x="117" y="0" type="line"/>
    </contour>
    <contour>
      <point x="234" y="0" type="line"/>
      <point x="234" y="23" type="line"/>
      <point x="25" y="23" type="line"/>
      <point x="25" y="0" type="line"/>
    </contour>
    <contour>
      <point x="142" y="334" type="line"/>
      <point x="142" y="357" type="line"/>
      <point x="25" y="357" type="line"/>
      <point x="25" y="334" type="line"/>
    </contour>
    <contour>
      <point x="143" y="469"/>
      <point x="159" y="482"/>
      <point x="159" y="499" type="curve"/>
      <point x="159" y="517"/>
      <point x="143" y="530"/>
      <point x="119" y="530" type="curve"/>
      <point x="97" y="530"/>
      <point x="80" y="517"/>
      <point x="80" y="499" type="curve"/>
      <point x="80" y="482"/>
      <point x="97" y="469"/>
      <point x="119" y="469" type="curve"/>
    </contour>
    <contour>
      <point x="233" y="0" type="move" name="ogonek"/>
    </contour>
    <contour>
      <point x="120" y="0" type="move" name="bottom"/>
    </contour>
    <contour>
      <point x="130" y="357" type="move" name="top"/>
    </contour>
  </outline>
</glyph>
<glyph name="l" format="1">
  <advance width="249"/>
  <unicode hex="006C"/>
  <outline>
    <contour>
      <point x="137" y="0" type="line"/>
      <point x="137" y="520" type="line"/>
      <point x="112" y="520" type="line"/>
      <point x="112" y="0" type="line"/>
    </contour>
    <contour>
      <point x="229" y="0" type="line"/>
      <point x="229" y="23" type="line"/>
      <point x="20" y="23" type="line"/>
      <point x="20" y="0" type="line"/>
    </contour>
    <contour>
      <point x="137" y="497" type="line"/>
      <point x="137" y="520" type="line"/>
      <point x="20" y="520" type="line"/>
      <point x="20" y="497" type="line"/>
    </contour>
    <contour>
      <point x="125" y="283" type="move" name="center"/>
    </contour>
    <contour>
      <point x="125" y="560" type="move" name="top"/>
    </contour>
    <contour>
      <point x="294" y="357" type="move" name="topright"/>
    </contour>
    <contour>
      <point x="125" y="0" type="move" name="bottom"/>
    </contour>
  </outline>
</glyph>
<glyph name="n" format="1">
  <advance width="536"/>
  <unicode hex="006E"/>
  <outline>
    <contour>
      <point x="437" y="0" type="line"/>
      <point x="437" y="234" type="line" smooth="yes"/>
      <point x="437" y="324"/>
      <point x="390" y="367"/>
      <point x="321" y="367" type="curve" smooth="yes"/>
      <point x="247" y="367"/>
      <point x="183" y="315"/>
      <point x="128" y="254" type="curve"/>
      <point x="128" y="231" type="line"/>
      <point x="184" y="294"/>
      <point x="253" y="344"/>
      <point x="316" y="344" type="curve" smooth="yes"/>
      <point x="380" y="344"/>
      <point x="412" y="304"/>
      <point x="412" y="229" type="curve" smooth="yes"/>
      <point x="412" y="0" type="line"/>
    </contour>
    <contour>
      <point x="217" y="0" type="line"/>
      <point x="217" y="23" type="line"/>
      <point x="25" y="23" type="line"/>
      <point x="25" y="0" type="line"/>
    </contour>
    <contour>
      <point x="142" y="0" type="line"/>
      <point x="142" y="357" type="line"/>
      <point x="117" y="357" type="line"/>
      <point x="117" y="0" type="line"/>
    </contour>
    <contour>
      <point x="142" y="334" type="line"/>
      <point x="142" y="357" type="line"/>
      <point x="25" y="357" type="line"/>
      <point x="25" y="334" type="line"/>
    </contour>
    <contour>
      <point x="519" y="0" type="line"/>
      <point x="519" y="23" type="line"/>
      <point x="337" y="23" type="line"/>
      <point x="337" y="0" type="line"/>
    </contour>
    <contour>
      <point x="274" y="367" type="move" name="top"/>
    </contour>
    <contour>
      <point x="279" y="0" type="move" name="bottom"/>
    </contour>
  </outline>
</glyph>
<glyph name="r" format="1">
  <advance width="399"/>
  <unicode hex="0072"/>
  <outline>
    <contour>
      <point x="202" y="299"/>
      <point x="258" y="342"/>
      <point x="331" y="344" type="curve"/>
      <point x="331" y="232" type="line"/>
      <point x="354" y="232" type="line"/>
      <point x="354" y="367" type="line"/>
      <point x="337" y="367" type="line" smooth="yes"/>
      <point x="258" y="367"/>
      <point x="199" y="321"/>
      <point x="139" y="255" type="curve"/>
      <point x="139" y="232" type="line"/>
    </contour>
    <contour>
      <point x="234" y="0" type="line"/>
      <point x="234" y="24" type="line"/>
      <point x="25" y="24" type="line"/>
      <point x="25" y="0" type="line"/>
    </contour>
    <contour>
      <point x="142" y="0" type="line"/>
      <point x="142" y="357" type="line"/>
      <point x="117" y="357" type="line"/>
      <point x="117" y="0" type="line"/>
    </contour>
    <contour>
      <point x="142" y="334" type="line"/>
      <point x="142" y="357" type="line"/>
      <point x="25" y="357" type="line"/>
      <point x="25" y="334" type="line"/>
    </contour>
    <contour>
      <point x="210" y="357" type="move" name="top"/>
    </contour>
    <contour>
      <point x="210" y="0" type="move" name="bottom"/>
    </contour>
  </outline>
</glyph>
<glyph name="v" format="1">
  <advance width="489"/>
  <unicode hex="0076"/>
  <outline>
    <contour>
      <point x="245" y="-10" type="line"/>
      <point x="421" y="348" type="line"/>
      <point x="397" y="348" type="line"/>
      <point x="243" y="32" type="line"/>
      <point x="89" y="348" type="line"/>
      <point x="62" y="348" type="line"/>
      <point x="239" y="-10" type="line"/>
    </contour>
    <contour>
      <point x="77" y="334" type="line"/>
      <point x="87" y="334" type="line"/>
      <point x="173" y="334" type="line"/>
      <point x="173" y="357" type="line"/>
      <point x="0" y="357" type="line"/>
      <point x="0" y="334" type="line"/>
    </contour>
    <contour>
      <point x="397" y="334" type="line"/>
      <point x="406" y="334" type="line"/>
      <point x="489" y="334" type="line"/>
      <point x="489" y="357" type="line"/>
      <point x="315" y="357" type="line"/>
      <point x="315" y="334" type="line"/>
    </contour>
    <contour>
      <point x="245" y="347" type="move" name="top"/>
    </contour>
    <contour>
      <point x="243" y="0" type="move" name="bottom"/>
    </contour>
  </outline>
</glyph>
<glyph name="x" format="1">
  <advance width="491"/>
  <unicode hex="0078"/>
  <outline>
    <contour>
      <point x="103" y="9" type="line"/>
      <point x="250" y="168" type="line"/>
      <point x="253" y="168" type="line"/>
      <point x="419" y="348" type="line"/>
      <point x="388" y="348" type="line"/>
      <point x="243" y="189" type="line"/>
      <point x="241" y="189" type="line"/>
      <point x="72" y="9" type="line"/>
    </contour>
    <contour>
      <point x="213" y="0" type="line"/>
      <point x="213" y="23" type="line"/>
      <point x="109" y="23" type="line"/>
      <point x="97" y="23" type="line"/>
      <point x="25" y="23" type="line"/>
      <point x="25" y="0" type="line"/>
    </contour>
    <contour>
      <point x="466" y="0" type="line"/>
      <point x="466" y="23" type="line"/>
      <point x="395" y="23" type="line"/>
      <point x="386" y="23" type="line"/>
      <point x="278" y="23" type="line"/>
      <point x="278" y="0" type="line"/>
    </contour>
    <contour>
      <point x="419" y="9" type="line"/>
      <point x="253" y="189" type="line"/>
      <point x="249" y="189" type="line"/>
      <point x="105" y="348" type="line"/>
      <point x="72" y="348" type="line"/>
      <point x="240" y="168" type="line"/>
      <point x="243" y="168" type="line"/>
      <point x="386" y="9" type="line"/>
    </contour>
    <contour>
      <point x="96" y="334" type="line"/>
      <point x="107" y="334" type="line"/>
      <point x="213" y="334" type="line"/>
      <point x="213" y="357" type="line"/>
      <point x="25" y="357" type="line"/>
      <point x="25" y="334" type="line"/>
    </contour>
    <contour>
      <point x="383" y="334" type="line"/>
      <point x="395" y="334" type="line"/>
      <point x="466" y="334" type="line"/>
      <point x="466" y="357" type="line"/>
      <point x="278" y="357" type="line"/>
      <point x="278" y="334" type="line"/>
    </contour>
    <contour>
      <point x="247" y="357" type="move" name="top"/>
    </contour>
    <contour>
      <point x="247" y="0" type="move" name="bottom"/>
    </contour>
  </outline>
</glyph>
<glyph name="y" format="1">
  <advance width="497"/>
  <unicode hex="0079"/>
  <outline>
    <contour>
      <point x="178" y="-180"/>
      <point x="221" y="-132"/>
      <point x="251" y="-63" type="curve" smooth="yes"/>
      <point x="426" y="343" type="line"/>
      <point x="399" y="343" type="line"/>
      <point x="224" y="-64" type="line" smooth="yes"/>
      <point x="198" y="-125"/>
      <point x="158" y="-157"/>
      <point x="116" y="-157" type="curve" smooth="yes"/>
      <point x="82" y="-157"/>
      <point x="56" y="-141"/>
      <point x="33" y="-123" type="curve"/>
      <point x="20" y="-143" type="line"/>
      <point x="43" y="-160"/>
      <point x="74" y="-180"/>
      <point x="116" y="-180" type="curve" smooth="yes"/>
    </contour>
    <contour>
      <point x="262" y="-20" type="line"/>
      <point x="101" y="348" type="line"/>
      <point x="73" y="348" type="line"/>
      <point x="247" y="-44" type="line"/>
    </contour>
    <contour>
      <point x="88" y="334" type="line"/>
      <point x="98" y="334" type="line"/>
      <point x="183" y="334" type="line"/>
      <point x="183" y="357" type="line"/>
      <point x="0" y="357" type="line"/>
      <point x="0" y="334" type="line"/>
    </contour>
    <contour>
      <point x="403" y="334" type="line"/>
      <point x="412" y="334" type="line"/>
      <point x="497" y="334" type="line"/>
      <point x="497" y="357" type="line"/>
      <point x="324" y="357" type="line"/>
      <point x="324" y="334" type="line"/>
    </contour>
    <contour>
      <point x="253" y="347" type="move" name="top"/>
    </contour>
    <contour>
      <point x="254" y="0" type="move" name="bottom"/>
    </contour>
  </outline>
</glyph>
<glyph name="z" format="1">
  <advance width="442"/>
  <unicode hex="007A"/>
  <outline>
    <contour>
      <point x="358" y="262"/>
      <point x="284" y="230"/>
      <point x="205" y="193" type="curve" smooth="yes"/>
      <point x="127" y="156"/>
      <point x="65" y="115"/>
      <point x="35" y="-4" type="curve"/>
      <point x="56" y="-10" type="line"/>
      <point x="85" y="98"/>
      <point x="140" y="137"/>
      <point x="214" y="172" type="curve" smooth="yes"/>
      <point x="297" y="211"/>
      <point x="379" y="245"/>
      <point x="394" y="362" type="curve"/>
      <point x="372" y="367" type="line"/>
    </contour>
    <contour>
      <point x="360" y="-10"/>
      <point x="410" y="41"/>
      <point x="417" y="111" type="curve"/>
      <point x="394" y="115" type="line"/>
      <point x="387" y="47"/>
      <point x="339" y="13"/>
      <point x="285" y="13" type="curve" smooth="yes"/>
      <point x="228" y="13"/>
      <point x="163" y="51"/>
      <point x="115" y="105" type="curve"/>
      <point x="99" y="90" type="line"/>
      <point x="149" y="34"/>
      <point x="219" y="-10"/>
      <point x="284" y="-10" type="curve" smooth="yes"/>
    </contour>
    <contour>
      <point x="70" y="232" type="line"/>
      <point x="70" y="345" type="line"/>
      <point x="166" y="345"/>
      <point x="248" y="315"/>
      <point x="330" y="250" type="curve"/>
      <point x="338" y="269" type="line"/>
      <point x="256" y="335"/>
      <point x="183" y="367"/>
      <point x="72" y="367" type="curve" smooth="yes"/>
      <point x="47" y="367" type="line"/>
      <point x="47" y="232" type="line"/>
    </contour>
    <contour>
      <point x="219" y="367" type="move" name="top"/>
    </contour>
    <contour>
      <point x="219" y="-10" type="move" name="bottom"/>
    </contour>
  </outline>
</glyph>
<glyph name="braceleft" format="1">
  <advance width="354"/>
  <unicode hex="007B"/>
  <outline>
    <contour>
      <point x="259" y="-120"/>
      <point x="292" y="-111"/>
      <point x="329" y="-95" type="curve"/>
      <point x="322" y="-73" type="line"/>
      <point x="288" y="-87"/>
      <point x="257" y="-96"/>
      <point x="213" y="-96" type="curve" smooth="yes"/>
      <point x="167" y="-96"/>
      <point x="108" y="-77"/>
      <point x="108" y="-17" type="curve" smooth="yes"/>
      <point x="108" y="66"/>
      <point x="245" y="96"/>
      <point x="245" y="186" type="curve" smooth="yes"/>
      <point x="245" y="234"/>
      <point x="199" y="270"/>
      <point x="121" y="270" type="curve"/>
      <point x="121" y="260" type="line"/>
      <point x="199" y="260"/>
      <point x="245" y="296"/>
      <point x="245" y="344" type="curve" smooth="yes"/>
      <point x="245" y="434"/>
      <point x="108" y="464"/>
      <point x="108" y="547" type="curve" smooth="yes"/>
      <point x="108" y="607"/>
      <point x="167" y="626"/>
      <point x="213" y="626" type="curve" smooth="yes"/>
      <point x="257" y="626"/>
      <point x="288" y="619"/>
      <point x="322" y="603" type="curve"/>
      <point x="329" y="625" type="line"/>
      <point x="292" y="642"/>
      <point x="259" y="650"/>
      <point x="213" y="650" type="curve" smooth="yes"/>
      <point x="154" y="650"/>
      <point x="83" y="622"/>
      <point x="83" y="547" type="curve" smooth="yes"/>
      <point x="83" y="450"/>
      <point x="221" y="423"/>
      <point x="221" y="345" type="curve" smooth="yes"/>
      <point x="221" y="307"/>
      <point x="185" y="276"/>
      <point x="107" y="276" type="curve" smooth="yes"/>
      <point x="70" y="276" type="line"/>
      <point x="70" y="254" type="line"/>
      <point x="107" y="254" type="line" smooth="yes"/>
      <point x="185" y="254"/>
      <point x="221" y="223"/>
      <point x="221" y="185" type="curve" smooth="yes"/>
      <point x="221" y="112"/>
      <point x="83" y="75"/>
      <point x="83" y="-17" type="curve" smooth="yes"/>
      <point x="83" y="-92"/>
      <point x="154" y="-120"/>
      <point x="213" y="-120" type="curve" smooth="yes"/>
    </contour>
  </outline>
</glyph>
<glyph name="braceright" format="1">
  <advance width="354"/>
  <unicode hex="007D"/>
  <outline>
    <contour>
      <point x="200" y="-120"/>
      <point x="271" y="-92"/>
      <point x="271" y="-17" type="curve" smooth="yes"/>
      <point x="271" y="75"/>
      <point x="133" y="112"/>
      <point x="133" y="185" type="curve" smooth="yes"/>
      <point x="133" y="223"/>
      <point x="169" y="254"/>
      <point x="247" y="254" type="curve" smooth="yes"/>
      <point x="284" y="254" type="line"/>
      <point x="284" y="276" type="line"/>
      <point x="247" y="276" type="line" smooth="yes"/>
      <point x="169" y="276"/>
      <point x="133" y="307"/>
      <point x="133" y="345" type="curve" smooth="yes"/>
      <point x="133" y="423"/>
      <point x="271" y="450"/>
      <point x="271" y="547" type="curve" smooth="yes"/>
      <point x="271" y="622"/>
      <point x="200" y="650"/>
      <point x="141" y="650" type="curve" smooth="yes"/>
      <point x="95" y="650"/>
      <point x="62" y="642"/>
      <point x="25" y="625" type="curve"/>
      <point x="32" y="603" type="line"/>
      <point x="66" y="619"/>
      <point x="97" y="626"/>
      <point x="141" y="626" type="curve" smooth="yes"/>
      <point x="187" y="626"/>
      <point x="246" y="607"/>
      <point x="246" y="547" type="curve" smooth="yes"/>
      <point x="246" y="464"/>
      <point x="109" y="434"/>
      <point x="109" y="344" type="curve" smooth="yes"/>
      <point x="109" y="296"/>
      <point x="155" y="260"/>
      <point x="233" y="260" type="curve"/>
      <point x="233" y="270" type="line"/>
      <point x="155" y="270"/>
      <point x="109" y="234"/>
      <point x="109" y="186" type="curve" smooth="yes"/>
      <point x="109" y="96"/>
      <point x="246" y="66"/>
      <point x="246" y="-17" type="curve" smooth="yes"/>
      <point x="246" y="-77"/>
      <point x="187" y="-96"/>
      <point x="141" y="-96" type="curve" smooth="yes"/>
      <point x="97" y="-96"/>
      <point x="66" y="-87"/>
      <point x="32" y="-73" type="curve"/>
      <point x="25" y="-95" type="line"/>
      <point x="62" y="-111"/>
      <point x="95" y="-120"/>
      <point x="141" y="-120" type="curve" smooth="yes"/>
    </contour>
  </outline>
</glyph>
<glyph name="yen" format="1">
  <advance width="650"/>
  <unicode hex="00A5"/>
  <outline>
    <contour>
      <point x="267" y="447" type="line"/>
      <point x="267" y="470" type="line"/>
      <point x="30" y="470" type="line"/>
      <point x="30" y="447" type="line"/>
    </contour>
    <contour>
      <point x="620" y="447" type="line"/>
      <point x="620" y="470" type="line"/>
      <point x="384" y="470" type="line"/>
      <point x="384" y="447" type="line"/>
    </contour>
    <contour>
      <point x="333" y="151" type="line"/>
      <point x="514" y="460" type="line"/>
      <point x="490" y="460" type="line"/>
      <point x="320" y="169" type="line"/>
      <point x="332" y="169" type="line"/>
      <point x="161" y="460" type="line"/>
      <point x="135" y="460" type="line"/>
      <point x="317" y="151" type="line"/>
    </contour>
    <contour>
      <point x="337" y="300" type="line"/>
      <point x="337" y="322" type="line"/>
      <point x="86" y="322" type="line"/>
      <point x="86" y="300" type="line"/>
    </contour>
    <contour>
      <point x="567" y="300" type="line"/>
      <point x="567" y="322" type="line"/>
      <point x="317" y="322" type="line"/>
      <point x="317" y="300" type="line"/>
    </contour>
    <contour>
      <point x="567" y="150" type="line"/>
      <point x="567" y="172" type="line"/>
      <point x="86" y="172" type="line"/>
      <point x="86" y="150" type="line"/>
    </contour>
    <contour>
      <point x="338" y="0" type="line"/>
      <point x="338" y="161" type="line"/>
      <point x="313" y="161" type="line"/>
      <point x="313" y="0" type="line"/>
    </contour>
    <contour>
      <point x="451" y="0" type="line"/>
      <point x="451" y="23" type="line"/>
      <point x="200" y="23" type="line"/>
      <point x="200" y="0" type="line"/>
    </contour>
  </outline>
</glyph>
<glyph name="section" format="1">
  <advance width="540"/>
  <unicode hex="00A7"/>
  <outline>
    <contour>
      <point x="425" y="-4"/>
      <point x="505" y="49"/>
      <point x="505" y="124" type="curve" smooth="yes"/>
      <point x="505" y="203"/>
      <point x="425" y="242"/>
      <point x="293" y="279" type="curve" smooth="yes"/>
      <point x="176" y="312"/>
      <point x="110" y="344"/>
      <point x="110" y="411" type="curve" smooth="yes"/>
      <point x="110" y="468"/>
      <point x="161" y="507"/>
      <point x="235" y="507" type="curve" smooth="yes"/>
      <point x="318" y="507"/>
      <point x="396" y="462"/>
      <point x="464" y="361" type="curve"/>
      <point x="470" y="362" type="line"/>
      <point x="470" y="520" type="line"/>
      <point x="447" y="520" type="line"/>
      <point x="447" y="389" type="line"/>
      <point x="464" y="388" type="line"/>
      <point x="406" y="480"/>
      <point x="320" y="530"/>
      <point x="235" y="530" type="curve" smooth="yes"/>
      <point x="145" y="530"/>
      <point x="85" y="479"/>
      <point x="85" y="409" type="curve" smooth="yes"/>
      <point x="85" y="333"/>
      <point x="153" y="290"/>
      <point x="292" y="254" type="curve" smooth="yes"/>
      <point x="412" y="223"/>
      <point x="481" y="186"/>
      <point x="481" y="124" type="curve" smooth="yes"/>
      <point x="481" y="62"/>
      <point x="409" y="11"/>
      <point x="296" y="13" type="curve"/>
      <point x="296" y="-2" type="line"/>
    </contour>
    <contour>
      <point x="405" y="-247"/>
      <point x="465" y="-196"/>
      <point x="465" y="-126" type="curve" smooth="yes"/>
      <point x="465" y="-50"/>
      <point x="397" y="-7"/>
      <point x="258" y="29" type="curve" smooth="yes"/>
      <point x="138" y="60"/>
      <point x="69" y="97"/>
      <point x="69" y="159" type="curve" smooth="yes"/>
      <point x="69" y="221"/>
      <point x="141" y="272"/>
      <point x="254" y="270" type="curve"/>
      <point x="254" y="285" type="line"/>
      <point x="125" y="287"/>
      <point x="45" y="234"/>
      <point x="45" y="159" type="curve" smooth="yes"/>
      <point x="45" y="80"/>
      <point x="125" y="41"/>
      <point x="257" y="4" type="curve" smooth="yes"/>
      <point x="374" y="-29"/>
      <point x="440" y="-61"/>
      <point x="440" y="-128" type="curve" smooth="yes"/>
      <point x="440" y="-185"/>
      <point x="389" y="-224"/>
      <point x="315" y="-224" type="curve" smooth="yes"/>
      <point x="232" y="-224"/>
      <point x="154" y="-179"/>
      <point x="86" y="-78" type="curve"/>
      <point x="80" y="-79" type="line"/>
      <point x="80" y="-237" type="line"/>
      <point x="103" y="-237" type="line"/>
      <point x="103" y="-106" type="line"/>
      <point x="86" y="-105" type="line"/>
      <point x="144" y="-197"/>
      <point x="230" y="-247"/>
      <point x="315" y="-247" type="curve" smooth="yes"/>
    </contour>
  </outline>
</glyph>
<glyph name="ordfeminine" format="1">
  <advance width="359"/>
  <unicode hex="00AA"/>
  <outline>
    <contour>
      <point x="298" y="304"/>
      <point x="314" y="324"/>
      <point x="314" y="348" type="curve" smooth="yes"/>
      <point x="314" y="359" type="line"/>
      <point x="293" y="359" type="line"/>
      <point x="293" y="348" type="line" smooth="yes"/>
      <point x="293" y="335"/>
      <point x="286" y="325"/>
      <point x="272" y="325" type="curve" smooth="yes"/>
      <point x="260" y="325"/>
      <point x="250" y="334"/>
      <point x="250" y="351" type="curve" smooth="yes"/>
      <point x="250" y="458" type="line"/>
      <point x="250" y="501"/>
      <point x="219" y="529"/>
      <point x="160" y="529" type="curve" smooth="yes"/>
      <point x="130" y="529"/>
      <point x="100" y="523"/>
      <point x="66" y="511" type="curve"/>
      <point x="72" y="490" type="line"/>
      <point x="105" y="502"/>
      <point x="131" y="508"/>
      <point x="160" y="508" type="curve" smooth="yes"/>
      <point x="209" y="508"/>
      <point x="227" y="486"/>
      <point x="227" y="458" type="curve"/>
      <point x="227" y="351" type="line" smooth="yes"/>
      <point x="227" y="322"/>
      <point x="244" y="304"/>
      <point x="273" y="304" type="curve" smooth="yes"/>
    </contour>
    <contour>
      <point x="166" y="301"/>
      <point x="207" y="318"/>
      <point x="237" y="352" type="curve"/>
      <point x="237" y="370" type="line"/>
      <point x="207" y="339"/>
      <point x="169" y="322"/>
      <point x="137" y="322" type="curve" smooth="yes"/>
      <point x="109" y="322"/>
      <point x="81" y="335"/>
      <point x="81" y="369" type="curve" smooth="yes"/>
      <point x="81" y="401"/>
      <point x="109" y="418"/>
      <point x="147" y="418" type="curve" smooth="yes"/>
      <point x="179" y="418"/>
      <point x="208" y="413"/>
      <point x="237" y="401" type="curve"/>
      <point x="237" y="419" type="line"/>
      <point x="208" y="430"/>
      <point x="181" y="439"/>
      <point x="143" y="439" type="curve" smooth="yes"/>
      <point x="99" y="439"/>
      <point x="58" y="416"/>
      <point x="58" y="369" type="curve" smooth="yes"/>
      <point x="58" y="320"/>
      <point x="100" y="301"/>
      <point x="135" y="301" type="curve" smooth="yes"/>
    </contour>
    <contour>
      <point x="55" y="212" type="line"/>
      <point x="292" y="212" type="line"/>
      <point x="292" y="233" type="line"/>
      <point x="55" y="233" type="line"/>
    </contour>
  </outline>
</glyph>
<glyph name="registered" format="1">
  <advance width="774"/>
  <unicode hex="00AE"/>
  <outline>
    <contour>
      <point x="571" y="-165"/>
      <point x="734" y="-25"/>
      <point x="734" y="177" type="curve"/>
      <point x="734" y="379"/>
      <point x="571" y="519"/>
      <point x="387" y="519" type="curve"/>
      <point x="203" y="519"/>
      <point x="40" y="379"/>
      <point x="40" y="177" type="curve"/>
      <point x="40" y="-25"/>
      <point x="203" y="-165"/>
      <point x="387" y="-165" type="curve"/>
    </contour>
    <contour>
      <point x="357" y="12" type="line"/>
      <point x="357" y="33" type="line"/>
      <point x="209" y="33" type="line"/>
      <point x="209" y="12" type="line"/>
    </contour>
    <contour>
      <point x="297" y="20" type="line"/>
      <point x="297" y="325" type="line"/>
      <point x="274" y="325" type="line"/>
      <point x="274" y="20" type="line"/>
    </contour>
    <contour>
      <point x="550" y="6"/>
      <point x="572" y="40"/>
      <point x="572" y="77" type="curve" smooth="yes"/>
      <point x="572" y="90" type="line"/>
      <point x="549" y="90" type="line"/>
      <point x="549" y="77" type="line" smooth="yes"/>
      <point x="549" y="49"/>
      <point x="537" y="27"/>
      <point x="511" y="27" type="curve" smooth="yes"/>
      <point x="484" y="27"/>
      <point x="471" y="49"/>
      <point x="452" y="99" type="curve" smooth="yes"/>
      <point x="427" y="164"/>
      <point x="382" y="167"/>
      <point x="357" y="167" type="curve" smooth="yes"/>
      <point x="291" y="167" type="line"/>
      <point x="291" y="159" type="line"/>
      <point x="367" y="159" type="line" smooth="yes"/>
      <point x="377" y="159"/>
      <point x="413" y="142"/>
      <point x="433" y="87" type="curve" smooth="yes"/>
      <point x="452" y="35"/>
      <point x="471" y="6"/>
      <point x="511" y="6" type="curve" smooth="yes"/>
    </contour>
    <contour>
      <point x="214" y="-142"/>
      <point x="65" y="-7"/>
      <point x="65" y="177" type="curve"/>
      <point x="65" y="361"/>
      <point x="214" y="496"/>
      <point x="387" y="496" type="curve"/>
      <point x="560" y="496"/>
      <point x="709" y="361"/>
      <point x="709" y="177" type="curve"/>
      <point x="709" y="-7"/>
      <point x="560" y="-142"/>
      <point x="387" y="-142" type="curve"/>
    </contour>
    <contour>
      <point x="413" y="159" type="line" smooth="yes"/>
      <point x="484" y="159"/>
      <point x="521" y="202"/>
      <point x="521" y="245" type="curve" smooth="yes"/>
      <point x="521" y="294"/>
      <point x="483" y="332"/>
      <point x="413" y="332" type="curve" smooth="yes"/>
      <point x="209" y="332" type="line"/>
      <point x="209" y="311" type="line"/>
      <point x="413" y="311" type="line" smooth="yes"/>
      <point x="468" y="311"/>
      <point x="498" y="284"/>
      <point x="498" y="245" type="curve" smooth="yes"/>
      <point x="498" y="206"/>
      <point x="466" y="180"/>
      <point x="413" y="180" type="curve" smooth="yes"/>
      <point x="291" y="180" type="line"/>
      <point x="291" y="159" type="line"/>
    </contour>
  </outline>
</glyph>
<glyph name="uni00B5" format="1">
  <advance width="501"/>
  <unicode hex="00B5"/>
  <outline>
    <contour>
      <point x="277" y="-10"/>
      <point x="337" y="40"/>
      <point x="388" y="103" type="curve"/>
      <point x="388" y="126" type="line"/>
      <point x="336" y="61"/>
      <point x="271" y="13"/>
      <point x="213" y="13" type="curve" smooth="yes"/>
      <point x="154" y="13"/>
      <point x="127" y="53"/>
      <point x="127" y="123" type="curve" smooth="yes"/>
      <point x="127" y="357" type="line"/>
      <point x="110" y="357" type="line"/>
      <point x="110" y="123" type="line" smooth="yes"/>
      <point x="110" y="33"/>
      <point x="144" y="-10"/>
      <point x="208" y="-10" type="curve" smooth="yes"/>
    </contour>
    <contour>
      <point x="126" y="-165" type="line"/>
      <point x="126" y="-43" type="line" smooth="yes"/>
      <point x="126" y="9"/>
      <point x="117" y="58"/>
      <point x="117" y="96" type="curve"/>
      <point x="117" y="357" type="line"/>
      <point x="102" y="357" type="line"/>
      <point x="102" y="-165" type="line"/>
    </contour>
    <contour>
      <point x="115" y="334" type="line"/>
      <point x="115" y="357" type="line"/>
      <point x="20" y="357" type="line"/>
      <point x="20" y="334" type="line"/>
    </contour>
    <contour>
      <point x="447" y="-10"/>
      <point x="459" y="-5"/>
      <point x="471" y="2" type="curve"/>
      <point x="462" y="23" type="line"/>
      <point x="453" y="17"/>
      <point x="445" y="14"/>
      <point x="432" y="14" type="curve" smooth="yes"/>
      <point x="412" y="14"/>
      <point x="399" y="29"/>
      <point x="399" y="68" type="curve"/>
      <point x="399" y="357" type="line"/>
      <point x="374" y="357" type="line"/>
      <point x="374" y="68" type="line"/>
      <point x="374" y="18"/>
      <point x="394" y="-10"/>
      <point x="431" y="-10" type="curve" smooth="yes"/>
    </contour>
  </outline>
</glyph>
<glyph name="periodcentered" format="1">
  <advance width="193"/>
  <unicode hex="00B7"/>
  <outline>
    <contour>
      <point x="121" y="218"/>
      <point x="138" y="232"/>
      <point x="138" y="250" type="curve"/>
      <point x="138" y="269"/>
      <point x="121" y="283"/>
      <point x="96" y="283" type="curve"/>
      <point x="73" y="283"/>
      <point x="55" y="269"/>
      <point x="55" y="250" type="curve"/>
      <point x="55" y="232"/>
      <point x="73" y="218"/>
      <point x="96" y="218" type="curve"/>
    </contour>
  </outline>
</glyph>
<glyph name="guillemotright" format="1">
  <advance width="524"/>
  <unicode hex="00BB"/>
  <outline>
    <contour>
      <point x="294" y="97"/>
      <point x="397" y="174"/>
      <point x="492" y="174" type="curve" smooth="yes"/>
      <point x="504" y="174" type="line"/>
      <point x="504" y="197" type="line"/>
      <point x="492" y="197" type="line" smooth="yes"/>
      <point x="397" y="197"/>
      <point x="294" y="274"/>
      <point x="275" y="383" type="curve"/>
      <point x="255" y="379" type="line"/>
      <point x="271" y="265"/>
      <point x="380" y="182"/>
      <point x="473" y="182" type="curve"/>
      <point x="473" y="189" type="line"/>
      <point x="380" y="189"/>
      <point x="271" y="106"/>
      <point x="255" y="-8" type="curve"/>
      <point x="275" y="-12" type="line"/>
    </contour>
    <contour>
      <point x="99" y="97"/>
      <point x="202" y="174"/>
      <point x="297" y="174" type="curve" smooth="yes"/>
      <point x="309" y="174" type="line"/>
      <point x="309" y="197" type="line"/>
      <point x="297" y="197" type="line" smooth="yes"/>
      <point x="202" y="197"/>
      <point x="99" y="274"/>
      <point x="80" y="383" type="curve"/>
      <point x="60" y="379" type="line"/>
      <point x="76" y="265"/>
      <point x="185" y="182"/>
      <point x="278" y="182" type="curve"/>
      <point x="278" y="189" type="line"/>
      <point x="185" y="189"/>
      <point x="76" y="106"/>
      <point x="60" y="-8" type="curve"/>
      <point x="80" y="-12" type="line"/>
    </contour>
  </outline>
</glyph>
<glyph name="Oslash" format="1">
  <advance width="606"/>
  <unicode hex="00D8"/>
  <outline>
    <contour>
      <point x="219" y="11" type="line"/>
      <point x="222" y="19" type="line"/>
      <point x="397" y="498" type="line"/>
      <point x="400" y="506" type="line"/>
      <point x="427" y="581" type="line"/>
      <point x="402" y="581" type="line"/>
      <point x="377" y="513" type="line"/>
      <point x="374" y="506" type="line"/>
      <point x="201" y="28" type="line"/>
      <point x="198" y="21" type="line"/>
      <point x="169" y="-59" type="line"/>
      <point x="194" y="-59" type="line"/>
    </contour>
    <component base="O"/>
  </outline>
</glyph>
<glyph name="germandbls" format="1">
  <advance width="549"/>
  <unicode hex="00DF"/>
  <outline>
    <contour>
      <point x="473" y="-10"/>
      <point x="534" y="17"/>
      <point x="534" y="77" type="curve" smooth="yes"/>
      <point x="534" y="142"/>
      <point x="454" y="161"/>
      <point x="392" y="177" type="curve" smooth="yes"/>
      <point x="323" y="195"/>
      <point x="266" y="210"/>
      <point x="266" y="253" type="curve" smooth="yes"/>
      <point x="266" y="296"/>
      <point x="307" y="309"/>
      <point x="357" y="330" type="curve" smooth="yes"/>
      <point x="414" y="354"/>
      <point x="453" y="385"/>
      <point x="453" y="437" type="curve" smooth="yes"/>
      <point x="453" y="500"/>
      <point x="385" y="555"/>
      <point x="282" y="555" type="curve" smooth="yes"/>
      <point x="180" y="555"/>
      <point x="117" y="499"/>
      <point x="117" y="401" type="curve" smooth="yes"/>
      <point x="117" y="0" type="line"/>
      <point x="142" y="0" type="line"/>
      <point x="142" y="403" type="line" smooth="yes"/>
      <point x="142" y="490"/>
      <point x="201" y="532"/>
      <point x="282" y="532" type="curve" smooth="yes"/>
      <point x="379" y="532"/>
      <point x="427" y="485"/>
      <point x="427" y="439" type="curve" smooth="yes"/>
      <point x="427" y="404"/>
      <point x="406" y="375"/>
      <point x="350" y="353" type="curve" smooth="yes"/>
      <point x="291" y="330"/>
      <point x="240" y="308"/>
      <point x="240" y="253" type="curve" smooth="yes"/>
      <point x="240" y="189"/>
      <point x="317" y="170"/>
      <point x="391" y="152" type="curve" smooth="yes"/>
      <point x="456" y="136"/>
      <point x="508" y="121"/>
      <point x="508" y="76" type="curve" smooth="yes"/>
      <point x="508" y="34"/>
      <point x="471" y="14"/>
      <point x="419" y="14" type="curve" smooth="yes"/>
      <point x="354" y="14"/>
      <point x="285" y="57"/>
      <point x="247" y="114" type="curve"/>
      <point x="235" y="112" type="line"/>
      <point x="235" y="0" type="line"/>
      <point x="258" y="0" type="line"/>
      <point x="258" y="75" type="line"/>
      <point x="243" y="92" type="line"/>
      <point x="262" y="43"/>
      <point x="351" y="-10"/>
      <point x="419" y="-10" type="curve" smooth="yes"/>
    </contour>
    <contour>
      <point x="139" y="0" type="line"/>
      <point x="139" y="23" type="line"/>
      <point x="25" y="23" type="line"/>
      <point x="25" y="0" type="line"/>
    </contour>
    <contour>
      <point x="133" y="334" type="line"/>
      <point x="133" y="357" type="line"/>
      <point x="25" y="357" type="line"/>
      <point x="25" y="334" type="line"/>
    </contour>
  </outline>
</glyph>
<glyph name="hbar" format="1">
  <advance width="531"/>
  <unicode hex="0127"/>
  <outline>
    <contour>
      <point x="432" y="0" type="line"/>
      <point x="432" y="234" type="line" smooth="yes"/>
      <point x="432" y="324"/>
      <point x="385" y="367"/>
      <point x="316" y="367" type="curve" smooth="yes"/>
      <point x="242" y="367"/>
      <point x="178" y="315"/>
      <point x="123" y="254" type="curve"/>
      <point x="123" y="231" type="line"/>
      <point x="179" y="294"/>
      <point x="248" y="344"/>
      <point x="311" y="344" type="curve" smooth="yes"/>
      <point x="375" y="344"/>
      <point x="407" y="304"/>
      <point x="407" y="229" type="curve" smooth="yes"/>
      <point x="407" y="0" type="line"/>
    </contour>
    <contour>
      <point x="212" y="0" type="line"/>
      <point x="212" y="23" type="line"/>
      <point x="20" y="23" type="line"/>
      <point x="20" y="0" type="line"/>
    </contour>
    <contour>
      <point x="137" y="0" type="line"/>
      <point x="137" y="520" type="line"/>
      <point x="112" y="520" type="line"/>
      <point x="112" y="0" type="line"/>
    </contour>
    <contour>
      <point x="128" y="497" type="line"/>
      <point x="128" y="520" type="line"/>
      <point x="20" y="520" type="line"/>
      <point x="20" y="497" type="line"/>
    </contour>
    <contour>
      <point x="514" y="0" type="line"/>
      <point x="514" y="23" type="line"/>
      <point x="332" y="23" type="line"/>
      <point x="332" y="0" type="line"/>
    </contour>
    <contour>
      <point x="288" y="414" type="line"/>
      <point x="288" y="436" type="line"/>
      <point x="20" y="436" type="line"/>
      <point x="20" y="414" type="line"/>
    </contour>
    <contour>
      <point x="288" y="179" type="move" name="center"/>
    </contour>
    <contour>
      <point x="288" y="0" type="move" name="bottom"/>
    </contour>
    <contour>
      <point x="288" y="387" type="move" name="top"/>
    </contour>
  </outline>
</glyph>
<glyph name="oe" format="1">
  <advance width="747"/>
  <unicode hex="0153"/>
  <outline>
    <contour>
      <point x="322" y="-10"/>
      <point x="405" y="63"/>
      <point x="405" y="178" type="curve"/>
      <point x="405" y="293"/>
      <point x="322" y="366"/>
      <point x="225" y="367" type="curve"/>
      <point x="128" y="366"/>
      <point x="45" y="293"/>
      <point x="45" y="178" type="curve"/>
      <point x="45" y="63"/>
      <point x="128" y="-10"/>
      <point x="225" y="-11" type="curve"/>
    </contour>
    <contour>
      <point x="137" y="12"/>
      <point x="71" y="79"/>
      <point x="71" y="178" type="curve"/>
      <point x="71" y="277"/>
      <point x="137" y="344"/>
      <point x="225" y="344" type="curve"/>
      <point x="313" y="344"/>
      <point x="379" y="277"/>
      <point x="379" y="178" type="curve"/>
      <point x="379" y="79"/>
      <point x="313" y="12"/>
      <point x="225" y="12" type="curve"/>
    </contour>
    <contour>
      <point x="626" y="-10"/>
      <point x="669" y="16"/>
      <point x="707" y="49" type="curve"/>
      <point x="693" y="67" type="line"/>
      <point x="659" y="36"/>
      <point x="622" y="14"/>
      <point x="563" y="13" type="curve" smooth="yes"/>
      <point x="482" y="12"/>
      <point x="405" y="72"/>
      <point x="405" y="167" type="curve" smooth="yes"/>
      <point x="405" y="282"/>
      <point x="490" y="343"/>
      <point x="567" y="343" type="curve" smooth="yes"/>
      <point x="633" y="343"/>
      <point x="681" y="309"/>
      <point x="681" y="257" type="curve" smooth="yes"/>
      <point x="681" y="204"/>
      <point x="620" y="180"/>
      <point x="564" y="180" type="curve" smooth="yes"/>
      <point x="504" y="180"/>
      <point x="450" y="195"/>
      <point x="399" y="213" type="curve"/>
      <point x="400" y="192" type="line"/>
      <point x="450" y="174"/>
      <point x="504" y="157"/>
      <point x="564" y="157" type="curve" smooth="yes"/>
      <point x="635" y="157"/>
      <point x="706" y="191"/>
      <point x="706" y="257" type="curve" smooth="yes"/>
      <point x="706" y="320"/>
      <point x="646" y="366"/>
      <point x="567" y="366" type="curve" smooth="yes"/>
      <point x="483" y="366"/>
      <point x="390" y="306"/>
      <point x="382" y="185" type="curve"/>
      <point x="382" y="167" type="line"/>
      <point x="382" y="51"/>
      <point x="472" y="-10"/>
      <point x="563" y="-10" type="curve" smooth="yes"/>
    </contour>
    <contour>
      <point x="394" y="179" type="move" name="center"/>
    </contour>
    <contour>
      <point x="707" y="49" type="move" name="ogonek"/>
    </contour>
    <contour>
      <point x="396" y="367" type="move" name="top"/>
    </contour>
    <contour>
      <point x="638" y="357" type="move" name="topright"/>
    </contour>
    <contour>
      <point x="405" y="-10" type="move" name="bottom"/>
    </contour>
  </outline>
</glyph>
<glyph name="uni0237" format="1">
  <advance width="228"/>
  <unicode hex="0237"/>
  <outline>
    <contour>
      <point x="102" y="-190"/>
      <point x="143" y="-145"/>
      <point x="143" y="-78" type="curve" smooth="yes"/>
      <point x="143" y="357" type="line"/>
      <point x="118" y="357" type="line"/>
      <point x="118" y="-79" type="line" smooth="yes"/>
      <point x="118" y="-137"/>
      <point x="85" y="-167"/>
      <point x="40" y="-167" type="curve" smooth="yes"/>
      <point x="7" y="-167"/>
      <point x="-24" y="-156"/>
      <point x="-43" y="-146" type="curve"/>
      <point x="-50" y="-168" type="line"/>
      <point x="-31" y="-177"/>
      <point x="1" y="-190"/>
      <point x="39" y="-190" type="curve" smooth="yes"/>
    </contour>
    <contour>
      <point x="143" y="334" type="line"/>
      <point x="143" y="357" type="line"/>
      <point x="26" y="357" type="line"/>
      <point x="26" y="334" type="line"/>
    </contour>
    <contour>
      <point x="91" y="357" type="move" name="top"/>
    </contour>
    <contour>
      <point x="91" y="0" type="move" name="bottom"/>
    </contour>
  </outline>
</glyph>
<glyph name="gravecomb" format="1">
  <advance width="348"/>
  <unicode hex="0300"/>
  <outline>
    <contour>
      <point x="268" y="595" type="line"/>
      <point x="70" y="714" type="line"/>
      <point x="85" y="737" type="line"/>
      <point x="278" y="610" type="line"/>
    </contour>
    <contour>
      <point x="210" y="520" type="move" name="_top"/>
    </contour>
  </outline>
</glyph>
<glyph name="acutecomb" format="1">
  <advance width="348"/>
  <unicode hex="0301"/>
  <outline>
    <contour>
      <point x="263" y="737" type="line"/>
      <point x="278" y="714" type="line"/>
      <point x="80" y="595" type="line"/>
      <point x="70" y="610" type="line"/>
    </contour>
    <contour>
      <point x="138" y="520" type="move" name="_top"/>
    </contour>
  </outline>
</glyph>
<glyph name="tildecomb" format="1">
  <advance width="423"/>
  <unicode hex="0303"/>
  <outline>
    <contour>
      <point x="337" y="587"/>
      <point x="364" y="631"/>
      <point x="368" y="707" type="curve"/>
      <point x="347" y="709" type="line"/>
      <point x="343" y="636"/>
      <point x="320" y="609"/>
      <point x="287" y="609" type="curve" smooth="yes"/>
      <point x="260" y="609"/>
      <point x="244" y="627"/>
      <point x="219" y="662" type="curve" smooth="yes"/>
      <point x="193" y="699"/>
      <point x="171" y="722"/>
      <point x="136" y="722" type="curve" smooth="yes"/>
      <point x="86" y="722"/>
      <point x="59" y="678"/>
      <point x="55" y="602" type="curve"/>
      <point x="76" y="600" type="line"/>
      <point x="80" y="673"/>
      <point x="103" y="700"/>
      <point x="136" y="700" type="curve" smooth="yes"/>
      <point x="163" y="700"/>
      <point x="179" y="682"/>
      <point x="204" y="647" type="curve" smooth="yes"/>
      <point x="230" y="610"/>
      <point x="252" y="587"/>
      <point x="287" y="587" type="curve" smooth="yes"/>
    </contour>
    <contour>
      <point x="206" y="520" type="move" name="_top"/>
    </contour>
  </outline>
</glyph>
<glyph name="uni030C" format="1">
  <advance width="334"/>
  <unicode hex="030C"/>
  <outline>
    <contour>
      <point x="167" y="580" type="line"/>
      <point x="46" y="699" type="line"/>
      <point x="35" y="688" type="line"/>
      <point x="157" y="552" type="line"/>
      <point x="177" y="552" type="line"/>
      <point x="299" y="688" type="line"/>
      <point x="288" y="699" type="line"/>
    </contour>
    <contour>
      <point x="167" y="520" type="move" name="_top"/>
    </contour>
  </outline>
</glyph>
<glyph name="uni0327" format="1">
  <advance width="226"/>
  <unicode hex="0327"/>
  <outline>
    <contour>
      <point x="170" y="-175"/>
      <point x="201" y="-159"/>
      <point x="201" y="-129" type="curve" smooth="yes"/>
      <point x="201" y="-98"/>
      <point x="170" y="-87"/>
      <point x="126" y="-74" type="curve" smooth="yes"/>
      <point x="84" y="-62"/>
      <point x="68" y="-51"/>
      <point x="68" y="-36" type="curve" smooth="yes"/>
      <point x="68" y="-21"/>
      <point x="80" y="-11"/>
      <point x="98" y="1" type="curve"/>
      <point x="85" y="8" type="line"/>
      <point x="65" y="-2"/>
      <point x="45" y="-17"/>
      <point x="45" y="-41" type="curve" smooth="yes"/>
      <point x="45" y="-67"/>
      <point x="75" y="-83"/>
      <point x="113" y="-93" type="curve" smooth="yes"/>
      <point x="147" y="-102"/>
      <point x="178" y="-110"/>
      <point x="178" y="-129" type="curve" smooth="yes"/>
      <point x="178" y="-146"/>
      <point x="159" y="-153"/>
      <point x="132" y="-153" type="curve" smooth="yes"/>
      <point x="98" y="-153"/>
      <point x="63" y="-139"/>
      <point x="36" y="-122" type="curve"/>
      <point x="25" y="-141" type="line"/>
      <point x="52" y="-158"/>
      <point x="89" y="-175"/>
      <point x="132" y="-175" type="curve" smooth="yes"/>
    </contour>
    <contour>
      <point x="98" y="1" type="move" name="_bottom"/>
    </contour>
  </outline>
</glyph>
<glyph name="uni0416" format="1">
  <advance width="824"/>
  <unicode hex="0416"/>
  <outline>
    <contour>
      <point x="538" y="0" type="line" smooth="yes"/>
      <point x="538" y="23" type="line" smooth="yes"/>
      <point x="287" y="23" type="line" smooth="yes"/>
      <point x="287" y="0" type="line" smooth="yes"/>
    </contour>
    <contour>
      <point x="425" y="13" type="line" smooth="yes"/>
      <point x="425" y="507" type="line" smooth="yes"/>
      <point x="400" y="507" type="line" smooth="yes"/>
      <point x="400" y="13" type="line" smooth="yes"/>
    </contour>
    <contour>
      <point x="538" y="497" type="line" smooth="yes"/>
      <point x="538" y="520" type="line" smooth="yes"/>
      <point x="287" y="520" type="line" smooth="yes"/>
      <point x="287" y="497" type="line" smooth="yes"/>
    </contour>
    <contour>
      <point x="374" y="249" type="line"/>
      <point x="402" y="260" type="line"/>
      <point x="119" y="507" type="line"/>
      <point x="72" y="507" type="line"/>
    </contour>
    <contour>
      <point x="119" y="10" type="line"/>
      <point x="402" y="260" type="line"/>
      <point x="366" y="264" type="line"/>
      <point x="76" y="10" type="line"/>
    </contour>
    <contour>
      <point x="232" y="497" type="line" smooth="yes"/>
      <point x="232" y="520" type="line" smooth="yes"/>
      <point x="0" y="520" type="line" smooth="yes"/>
      <point x="0" y="497" type="line" smooth="yes"/>
    </contour>
    <contour>
      <point x="232" y="0" type="line" smooth="yes"/>
      <point x="232" y="23" type="line" smooth="yes"/>
      <point x="0" y="23" type="line" smooth="yes"/>
      <point x="0" y="0" type="line" smooth="yes"/>
    </contour>
    <contour>
      <point x="705" y="13" type="line"/>
      <point x="752" y="13" type="line"/>
      <point x="450" y="271" type="line"/>
      <point x="422" y="260" type="line"/>
    </contour>
    <contour>
      <point x="748" y="510" type="line"/>
      <point x="705" y="510" type="line"/>
      <point x="422" y="260" type="line"/>
      <point x="458" y="256" type="line"/>
    </contour>
    <contour>
      <point x="824" y="0" type="line" smooth="yes"/>
      <point x="824" y="23" type="line" smooth="yes"/>
      <point x="592" y="23" type="line" smooth="yes"/>
      <point x="592" y="0" type="line" smooth="yes"/>
    </contour>
    <contour>
      <point x="824" y="497" type="line" smooth="yes"/>
      <point x="824" y="520" type="line" smooth="yes"/>
      <point x="592" y="520" type="line" smooth="yes"/>
      <point x="592" y="497" type="line" smooth="yes"/>
    </contour>
  </outline>
</glyph>
<glyph name="uni1E9E" format="1">
  <advance width="608"/>
  <unicode hex="1E9E"/>
  <outline>
    <contour>
      <point x="250" y="0" type="line"/>
      <point x="250" y="111" type="line"/>
      <point x="233" y="122" type="line"/>
      <point x="276" y="38"/>
      <point x="355" y="-10"/>
      <point x="434" y="-10" type="curve" smooth="yes"/>
      <point x="514" y="-10"/>
      <point x="578" y="39"/>
      <point x="578" y="109" type="curve" smooth="yes"/>
      <point x="578" y="183"/>
      <point x="515" y="232"/>
      <point x="359" y="262" type="curve"/>
      <point x="549" y="513" type="line"/>
      <point x="532" y="525" type="line"/>
      <point x="323" y="248" type="line"/>
      <point x="504" y="215"/>
      <point x="554" y="166"/>
      <point x="554" y="109" type="curve" smooth="yes"/>
      <point x="554" y="52"/>
      <point x="498" y="13"/>
      <point x="434" y="13" type="curve" smooth="yes"/>
      <point x="357" y="13"/>
      <point x="287" y="61"/>
      <point x="233" y="149" type="curve"/>
      <point x="227" y="148" type="line"/>
      <point x="227" y="0" type="line"/>
    </contour>
    <contour>
      <point x="177" y="532"/>
      <point x="113" y="466"/>
      <point x="113" y="353" type="curve" smooth="yes"/>
      <point x="113" y="23" type="line"/>
      <point x="0" y="23" type="line"/>
      <point x="0" y="0" type="line"/>
      <point x="138" y="0" type="line"/>
      <point x="138" y="355" type="line" smooth="yes"/>
      <point x="138" y="457"/>
      <point x="196" y="509"/>
      <point x="273" y="509" type="curve" smooth="yes"/>
      <point x="336" y="509"/>
      <point x="401" y="478"/>
      <point x="468" y="414" type="curve"/>
      <point x="484" y="432" type="line"/>
      <point x="415" y="498"/>
      <point x="346" y="532"/>
      <point x="273" y="532" type="curve" smooth="yes"/>
    </contour>
  </outline>
</glyph>
<glyph name="quotereversed" format="1">
  <advance width="209"/>
  <unicode hex="201B"/>
  <outline>
    <contour>
      <point x="154" y="369" type="line"/>
      <point x="107" y="417"/>
      <point x="80" y="458"/>
      <point x="76" y="502" type="curve"/>
      <point x="87" y="499"/>
      <point x="94" y="497"/>
      <point x="107" y="497" type="curve" smooth="yes"/>
      <point x="126" y="497"/>
      <point x="144" y="509"/>
      <point x="144" y="528" type="curve" smooth="yes"/>
      <point x="144" y="547"/>
      <point x="126" y="562"/>
      <point x="104" y="562" type="curve" smooth="yes"/>
      <point x="74" y="562"/>
      <point x="55" y="542"/>
      <point x="55" y="510" type="curve" smooth="yes"/>
      <point x="55" y="467"/>
      <point x="85" y="408"/>
      <point x="143" y="357" type="curve"/>
    </contour>
  </outline>
</glyph>
<glyph name="quotedblright" format="1">
  <advance width="345"/>
  <unicode hex="201D"/>
  <outline>
    <contour>
      <point x="260" y="409"/>
      <point x="290" y="468"/>
      <point x="290" y="511" type="curve" smooth="yes"/>
      <point x="290" y="543"/>
      <point x="271" y="563"/>
      <point x="241" y="563" type="curve" smooth="yes"/>
      <point x="219" y="563"/>
      <point x="201" y="548"/>
      <point x="201" y="529" type="curve" smooth="yes"/>
      <point x="201" y="510"/>
      <point x="219" y="498"/>
      <point x="238" y="498" type="curve" smooth="yes"/>
      <point x="251" y="498"/>
      <point x="258" y="500"/>
      <point x="269" y="503" type="curve"/>
      <point x="265" y="459"/>
      <point x="238" y="418"/>
      <point x="191" y="370" type="curve"/>
      <point x="202" y="358" type="line"/>
    </contour>
    <contour>
      <point x="124" y="409"/>
      <point x="154" y="468"/>
      <point x="154" y="511" type="curve" smooth="yes"/>
      <point x="154" y="543"/>
      <point x="135" y="563"/>
      <point x="105" y="563" type="curve" smooth="yes"/>
      <point x="83" y="563"/>
      <point x="65" y="548"/>
      <point x="65" y="529" type="curve" smooth="yes"/>
      <point x="65" y="510"/>
      <point x="83" y="498"/>
      <point x="102" y="498" type="curve" smooth="yes"/>
      <point x="115" y="498"/>
      <point x="122" y="500"/>
      <point x="133" y="503" type="curve"/>
      <point x="129" y="459"/>
      <point x="102" y="418"/>
      <point x="55" y="370" type="curve"/>
      <point x="66" y="358" type="line"/>
    </contour>
  </outline>
</glyph>
<glyph name="trademark" format="1">
  <advance width="619"/>
  <unicode hex="2122"/>
  <outline>
    <contour>
      <point x="424" y="296" type="line"/>
      <point x="428" y="337" type="line"/>
      <point x="338" y="520" type="line"/>
      <point x="310" y="520" type="line"/>
      <point x="422" y="296" type="line"/>
    </contour>
    <contour>
      <point x="204" y="300" type="line"/>
      <point x="204" y="323" type="line"/>
      <point x="87" y="323" type="line"/>
      <point x="87" y="300" type="line"/>
    </contour>
    <contour>
      <point x="158" y="305" type="line"/>
      <point x="158" y="501" type="line"/>
      <point x="133" y="501" type="line"/>
      <point x="133" y="305" type="line"/>
    </contour>
    <contour>
      <point x="64" y="451" type="line"/>
      <point x="64" y="497" type="line"/>
      <point x="228" y="497" type="line"/>
      <point x="228" y="451" type="line"/>
      <point x="251" y="451" type="line"/>
      <point x="251" y="520" type="line"/>
      <point x="40" y="520" type="line"/>
      <point x="40" y="451" type="line"/>
    </contour>
    <contour>
      <point x="370" y="300" type="line"/>
      <point x="370" y="323" type="line"/>
      <point x="272" y="323" type="line"/>
      <point x="272" y="300" type="line"/>
    </contour>
    <contour>
      <point x="335" y="305" type="line"/>
      <point x="335" y="520" type="line"/>
      <point x="310" y="520" type="line"/>
      <point x="310" y="305" type="line"/>
    </contour>
    <contour>
      <point x="333" y="497" type="line"/>
      <point x="333" y="520" type="line"/>
      <point x="272" y="520" type="line"/>
      <point x="272" y="497" type="line"/>
    </contour>
    <contour>
      <point x="574" y="300" type="line"/>
      <point x="574" y="323" type="line"/>
      <point x="476" y="323" type="line"/>
      <point x="476" y="300" type="line"/>
    </contour>
    <contour>
      <point x="424" y="296" type="line"/>
      <point x="537" y="520" type="line"/>
      <point x="510" y="520" type="line"/>
      <point x="420" y="336" type="line"/>
      <point x="422" y="296" type="line"/>
    </contour>
    <contour>
      <point x="536" y="305" type="line"/>
      <point x="536" y="520" type="line"/>
      <point x="511" y="520" type="line"/>
      <point x="511" y="305" type="line"/>
    </contour>
    <contour>
      <point x="574" y="497" type="line"/>
      <point x="574" y="520" type="line"/>
      <point x="514" y="520" type="line"/>
      <point x="514" y="497" type="line"/>
    </contour>
  </outline>
</glyph>
<glyph name="W.bold" format="1">
  <advance width="923"/>
  <outline>
    <contour>
      <point x="232" y="497" type="line"/>
      <point x="232" y="520" type="line"/>
      <point x="5" y="520" type="line"/>
      <point x="5" y="497" type="line"/>
    </contour>
    <contour>
      <point x="287" y="-10" type="line"/>
      <point x="295" y="26" type="line"/>
      <point x="126" y="507" type="line"/>
      <point x="97" y="507" type="line"/>
      <point x="281" y="-10" type="line"/>
    </contour>
    <contour>
      <point x="289" y="-10" type="line"/>
      <point x="474" y="471" type="line"/>
      <point x="463" y="507" type="line"/>
      <point x="459" y="507" type="line"/>
      <point x="278" y="26" type="line"/>
      <point x="285" y="-10" type="line"/>
    </contour>
    <contour>
      <point x="637" y="-10" type="line"/>
      <point x="645" y="26" type="line"/>
      <point x="467" y="507" type="line"/>
      <point x="461" y="507" type="line"/>
      <point x="451" y="473" type="line"/>
      <point x="633" y="-10" type="line"/>
    </contour>
    <contour>
      <point x="640" y="-10" type="line"/>
      <point x="826" y="507" type="line"/>
      <point x="797" y="507" type="line"/>
      <point x="629" y="26" type="line"/>
      <point x="636" y="-10" type="line"/>
    </contour>
    <contour>
      <point x="918" y="497" type="line"/>
      <point x="918" y="520" type="line"/>
      <point x="681" y="520" type="line"/>
      <point x="681" y="497" type="line"/>
    </contour>
    <contour>
      <point x="461" y="520" type="move" name="top"/>
    </contour>
    <contour>
      <point x="461" y="0" type="move" name="bottom"/>
    </contour>
  </outline>
</glyph>
<glyph name="g.alt" format="1">
  <advance width="469"/>
  <outline>
    <contour>
      <point x="324" y="-190"/>
      <point x="384" y="-129"/>
      <point x="384" y="-32" type="curve" smooth="yes"/>
      <point x="384" y="344" type="line"/>
      <point x="359" y="339" type="line"/>
      <point x="359" y="-33" type="line" smooth="yes"/>
      <point x="359" y="-121"/>
      <point x="307" y="-167"/>
      <point x="231" y="-167" type="curve" smooth="yes"/>
      <point x="174" y="-167"/>
      <point x="128" y="-147"/>
      <point x="77" y="-123" type="curve"/>
      <point x="70" y="-145" type="line"/>
      <point x="121" y="-169"/>
      <point x="168" y="-190"/>
      <point x="230" y="-190" type="curve" smooth="yes"/>
    </contour>
    <contour>
      <point x="280" y="-10"/>
      <point x="335" y="31"/>
      <point x="372" y="67" type="curve"/>
      <point x="372" y="94" type="line"/>
      <point x="330" y="52"/>
      <point x="280" y="14"/>
      <point x="211" y="13" type="curve" smooth="yes"/>
      <point x="133" y="12"/>
      <point x="70" y="72"/>
      <point x="70" y="171" type="curve" smooth="yes"/>
      <point x="70" y="272"/>
      <point x="140" y="345"/>
      <point x="223" y="345" type="curve" smooth="yes"/>
      <point x="290" y="345"/>
      <point x="338" y="311"/>
      <point x="379" y="268" type="curve"/>
      <point x="379" y="291" type="line"/>
      <point x="338" y="333"/>
      <point x="290" y="367"/>
      <point x="223" y="367" type="curve" smooth="yes"/>
      <point x="129" y="367"/>
      <point x="45" y="290"/>
      <point x="45" y="170" type="curve" smooth="yes"/>
      <point x="45" y="59"/>
      <point x="120" y="-10"/>
      <point x="211" y="-10" type="curve" smooth="yes"/>
    </contour>
    <contour>
      <point x="222" y="387" type="move" name="top"/>
    </contour>
    <contour>
      <point x="222" y="-210" type="move" name="bottom"/>
    </contour>
  </outline>
</glyph>
<glyph name="k.alt" format="1">
  <advance width="489"/>
  <outline>
    <contour>
      <point x="402" y="348" type="line"/>
      <point x="370" y="348" type="line"/>
      <point x="127" y="112" type="line"/>
      <point x="127" y="83" type="line"/>
    </contour>
    <contour>
      <point x="212" y="0" type="line"/>
      <point x="212" y="23" type="line"/>
      <point x="20" y="23" type="line"/>
      <point x="20" y="0" type="line"/>
    </contour>
    <contour>
      <point x="137" y="0" type="line"/>
      <point x="137" y="520" type="line"/>
      <point x="112" y="520" type="line"/>
      <point x="112" y="0" type="line"/>
    </contour>
    <contour>
      <point x="479" y="0" type="line"/>
      <point x="479" y="23" type="line"/>
      <point x="293" y="23" type="line"/>
      <point x="293" y="0" type="line"/>
    </contour>
    <contour>
      <point x="427" y="6" type="line"/>
      <point x="240" y="206" type="line"/>
      <point x="226" y="188" type="line"/>
      <point x="397" y="6" type="line"/>
    </contour>
    <contour>
      <point x="137" y="497" type="line"/>
      <point x="137" y="520" type="line"/>
      <point x="20" y="520" type="line"/>
      <point x="20" y="497" type="line"/>
    </contour>
    <contour>
      <point x="449" y="334" type="line"/>
      <point x="449" y="357" type="line"/>
      <point x="271" y="357" type="line"/>
      <point x="271" y="334" type="line"/>
    </contour>
    <contour>
      <point x="266" y="367" type="move" name="top"/>
    </contour>
    <contour>
      <point x="266" y="0" type="move" name="bottom"/>
    </contour>
  </outline>
</glyph>
<glyph name="seven.alt" format="1">
  <advance width="432"/>
  <outline>
    <contour>
      <point x="35" y="331" type="line"/>
      <point x="59" y="331" type="line"/>
      <point x="59" y="444" type="line"/>
      <point x="383" y="444" type="line"/>
      <point x="383" y="349"/>
      <point x="355" y="310"/>
      <point x="248" y="242" type="curve" smooth="yes"/>
      <point x="154" y="182"/>
      <point x="112" y="116"/>
      <point x="112" y="0" type="curve"/>
      <point x="137" y="0" type="line"/>
      <point x="137" y="98"/>
      <point x="164" y="161"/>
      <point x="258" y="220" type="curve" smooth="yes"/>
      <point x="366" y="288"/>
      <point x="407" y="335"/>
      <point x="407" y="444" type="curve" smooth="yes"/>
      <point x="407" y="467" type="line"/>
      <point x="35" y="467" type="line"/>
    </contour>
  </outline>
</glyph>
